<?xml version="1.0" standalone="no"?>
<!DOCTYPE svg PUBLIC "-//W3C//DTD SVG 20010904//EN"
 "http://www.w3.org/TR/2001/REC-SVG-20010904/DTD/svg10.dtd">
<svg version="1.0" xmlns="http://www.w3.org/2000/svg"
 width="450.000000pt" height="374.000000pt" viewBox="0 0 450.000000 374.000000"
 preserveAspectRatio="xMidYMid meet">

<g transform="translate(0.000000,374.000000) scale(0.100000,-0.100000)"
fill="#000000" stroke="none">
<path d="M0 3350 c0 -369 1 -390 18 -390 10 0 23 5 30 12 9 9 15 8 25 -6 12
-16 15 -17 20 -3 3 8 19 18 36 22 17 4 31 11 31 16 0 5 5 9 10 9 6 0 10 -6 10
-14 0 -7 10 -17 23 -21 19 -6 19 -8 5 -12 -10 -2 -18 -10 -18 -16 -1 -7 -9
-30 -20 -52 -18 -38 -19 -38 -20 -12 0 15 4 27 8 27 5 0 9 7 9 16 0 13 -8 15
-40 10 -49 -8 -57 -13 -57 -33 0 -15 2 -14 18 0 10 10 23 17 28 17 5 0 1 -7
-9 -14 -11 -8 -14 -17 -8 -20 5 -4 8 -16 6 -29 -4 -20 -3 -21 9 -4 7 9 16 17
19 17 3 0 4 -47 3 -104 -2 -97 -4 -107 -32 -147 -16 -23 -32 -47 -35 -53 -19
-35 -34 -64 -48 -91 -14 -26 -16 -118 -19 -733 -2 -566 0 -702 10 -696 10 6
11 4 1 -7 -15 -16 -17 -43 -3 -34 5 3 10 2 10 -4 0 -5 -5 -13 -10 -16 -14 -9
-11 -245 3 -242 5 1 12 -4 15 -12 3 -10 0 -12 -12 -8 -13 5 -16 0 -16 -29 0
-23 4 -33 11 -28 8 4 8 1 1 -13 -7 -12 -11 -140 -12 -336 l-1 -317 2230 0
c2106 0 2229 1 2236 18 6 16 7 16 21 -2 12 -17 14 -18 14 -3 0 9 -4 17 -10 17
-5 0 -10 9 -10 20 0 11 -6 20 -12 21 -7 0 -3 5 10 11 12 6 21 14 19 17 -2 3
-11 23 -20 44 -16 35 -16 39 -1 54 11 11 13 18 5 21 -6 2 -11 8 -11 13 0 4 7
6 15 3 17 -7 19 4 5 26 -7 12 -12 12 -22 2 -18 -18 -27 -14 -20 11 6 24 32 48
44 41 5 -3 8 105 8 240 0 229 -1 246 -17 243 -10 -1 -23 -6 -30 -10 -6 -4 -18
-4 -26 -1 -10 3 -20 -3 -27 -15 -6 -12 -7 -21 -1 -21 5 0 12 5 14 10 3 6 4 5
3 -2 -1 -7 -13 -14 -25 -14 -15 -1 -19 2 -12 9 5 5 7 16 4 23 -3 8 0 14 7 14
10 0 10 3 0 15 -10 13 -9 15 9 15 14 0 21 6 21 20 0 20 4 22 49 24 13 1 26 8
28 16 4 13 3 13 -6 0 -7 -9 -11 -10 -11 -3 0 6 5 15 10 18 6 4 10 30 9 59 -2
51 -3 53 -28 49 l-26 -4 28 18 c21 14 27 25 27 54 0 21 -6 40 -12 42 -10 4
-10 6 0 6 21 2 15 69 -8 81 -26 14 -28 -7 -3 -26 10 -7 15 -16 10 -20 -4 -4
-13 -2 -19 4 -18 18 -26 15 -30 -10 -2 -13 -11 -24 -23 -26 -27 -5 -42 -21
-19 -19 13 1 20 -6 22 -20 4 -31 -12 -29 -33 3 -15 23 -15 27 0 50 9 14 19 23
23 20 5 -3 14 5 21 16 12 19 11 20 -11 15 -12 -4 -28 -7 -34 -7 -6 0 -14 -14
-18 -32 -6 -29 -21 -32 -21 -5 0 7 -8 11 -18 11 -9 -1 -15 2 -12 6 3 5 1 11
-5 15 -5 3 -10 0 -11 -7 0 -7 -5 2 -11 21 -7 26 -6 36 4 43 10 7 8 8 -4 4 -10
-3 -18 -2 -18 3 0 11 -31 8 -56 -6 -12 -7 -24 -9 -28 -6 -3 3 -6 2 -6 -4 0 -6
-8 -9 -19 -6 -11 3 -21 -2 -25 -12 -3 -9 -10 -14 -15 -11 -5 3 -21 -6 -35 -19
-31 -29 -36 -30 -36 -10 0 8 6 15 14 15 7 0 20 8 27 17 10 12 10 14 1 9 -7 -4
-15 -1 -18 9 -4 10 -13 13 -25 10 -27 -9 -23 7 7 28 14 11 32 16 42 12 16 -6
16 -8 -2 -20 -17 -13 -17 -14 5 -13 13 1 34 10 45 20 19 17 23 18 37 3 10 -9
18 -11 22 -5 3 5 17 10 30 10 13 0 27 5 31 11 5 8 9 8 14 -1 4 -7 16 -9 29 -5
16 5 20 12 15 29 -6 26 27 62 50 53 9 -4 18 -2 21 3 4 6 15 10 26 10 10 0 19
5 19 11 0 5 -5 7 -11 4 -6 -4 -5 2 3 14 7 12 16 21 20 21 5 0 8 6 8 14 0 8 4
17 9 20 5 3 7 -10 6 -30 -3 -25 0 -33 6 -27 16 16 18 61 3 67 -7 3 -20 -1 -28
-9 -12 -13 -15 -13 -20 0 -3 8 -2 14 2 13 4 -2 19 6 35 16 l27 18 -1 394 c0
235 -4 394 -10 394 -5 0 -9 5 -9 11 0 5 5 7 10 4 17 -11 11 52 -6 66 -15 12
-16 11 -10 -9 6 -17 3 -22 -9 -22 -9 0 -13 -4 -10 -10 3 -6 -5 -10 -18 -10
-19 0 -33 12 -56 47 -35 53 -37 75 -16 156 8 32 15 73 15 91 0 36 21 84 42 97
7 4 10 10 7 13 -3 3 -16 -4 -29 -16 -20 -19 -23 -19 -17 -4 4 10 10 29 13 43
6 23 10 25 55 21 41 -4 49 -2 47 11 -4 20 -19 32 -31 24 -5 -3 -3 -9 4 -14 10
-6 8 -9 -7 -9 -12 0 -25 7 -28 16 -8 22 -8 24 7 24 13 0 57 44 57 56 0 4 -8
13 -17 20 -17 13 -17 15 0 28 16 12 17 44 17 420 l0 406 -540 0 c-333 -1 -542
-4 -545 -10 -4 -6 -11 -10 -16 -10 -6 0 -7 5 -4 10 3 6 -1 10 -9 10 -9 0 -16
-4 -16 -8 0 -10 47 -52 52 -47 1 2 9 -3 16 -11 10 -11 7 -13 -20 -8 -24 4 -29
3 -19 -4 8 -6 15 -21 17 -34 1 -12 3 -24 3 -26 1 -1 11 6 23 18 15 14 24 16
29 9 4 -6 12 -8 19 -4 8 5 6 13 -7 27 -18 20 -18 21 7 13 34 -10 34 -10 13
-39 -11 -16 -26 -25 -39 -24 -12 2 -29 -3 -38 -11 -10 -9 -16 -10 -16 -2 0 8
-7 8 -22 -1 -29 -17 -39 -30 -33 -45 2 -8 -4 -13 -15 -13 -24 0 -44 -60 -24
-72 15 -9 -3 -56 -23 -60 -8 -2 -9 -8 -3 -17 7 -12 11 -12 23 -2 11 9 17 9 22
1 10 -16 0 -23 -34 -24 -25 -1 -28 -3 -20 -23 7 -18 5 -23 -7 -23 -11 0 -14
-6 -8 -22 3 -13 11 -28 16 -34 6 -8 -3 -13 -31 -16 -27 -2 -42 1 -46 10 -3 8
0 10 7 6 7 -4 8 -3 4 4 -4 7 -3 12 3 12 5 0 12 -6 14 -12 4 -10 6 -10 6 0 1 7
6 10 13 6 7 -4 8 -3 4 5 -4 6 -11 9 -16 6 -4 -3 -13 2 -20 10 -14 17 -34 9
-26 -11 3 -7 1 -16 -5 -19 -5 -4 -7 -11 -4 -16 4 -5 -4 -14 -17 -19 -21 -10
-21 -10 5 -5 19 4 26 2 22 -5 -3 -5 -13 -10 -22 -10 -10 0 -13 -6 -9 -16 5
-12 2 -15 -11 -10 -14 6 -15 4 -6 -5 12 -12 37 -3 29 10 -3 4 1 8 10 8 10 0
12 -7 8 -20 -4 -13 -2 -17 5 -13 6 4 18 0 27 -9 9 -9 23 -14 30 -11 7 3 16 1
19 -3 2 -5 -4 -11 -15 -14 -11 -3 -20 -1 -20 5 0 5 -5 6 -10 3 -6 -4 -8 -11
-4 -16 3 -5 0 -16 -6 -24 -9 -11 -9 -15 -1 -15 6 0 11 -17 11 -39 0 -22 4 -43
10 -46 6 -4 5 -13 -2 -25 -7 -10 -17 -16 -23 -12 -5 3 -4 -1 3 -10 7 -8 9 -24
5 -33 -5 -14 -3 -17 10 -12 8 3 21 -1 28 -9 7 -9 21 -13 31 -10 16 4 17 2 7
-10 -6 -8 -18 -14 -25 -14 -8 0 -11 -6 -8 -15 4 -8 12 -15 19 -15 18 0 15 -68
-2 -75 -7 -2 -13 -11 -13 -19 0 -8 -5 -18 -12 -22 -7 -4 -8 -3 -4 4 4 7 2 12
-3 12 -14 0 -14 -4 4 -47 12 -28 18 -33 29 -24 11 9 15 8 20 -4 4 -11 2 -14
-6 -9 -7 4 -8 3 -4 -4 12 -19 36 -14 29 6 -5 14 -3 13 10 -3 14 -17 19 -18 37
-7 22 13 40 9 40 -11 0 -8 -3 -7 -9 2 -7 11 -11 9 -20 -8 -10 -17 -9 -21 3
-21 10 0 13 -6 9 -17 -6 -16 -5 -16 10 -4 9 7 17 20 17 27 0 8 5 14 11 14 8 0
8 4 -1 15 -6 8 -10 20 -7 27 3 8 6 6 6 -6 1 -12 6 -16 16 -12 8 3 14 2 13 -2
-1 -4 3 -17 10 -29 10 -18 9 -23 -4 -31 -20 -11 -12 -42 11 -42 8 0 15 4 15 9
0 5 10 11 23 14 l22 6 -22 -18 c-18 -15 -20 -21 -10 -29 26 -22 62 -30 77 -18
18 14 24 36 9 36 -5 0 -7 5 -4 10 3 6 2 10 -4 10 -5 0 -8 10 -6 23 4 22 4 22
-11 2 -12 -16 -18 -18 -34 -7 -24 15 -33 15 -25 2 3 -5 0 -7 -9 -4 -8 3 -12
12 -10 19 3 7 0 23 -6 35 -10 19 -10 20 7 12 10 -5 28 -8 41 -6 17 3 22 -1 23
-19 1 -14 3 -16 6 -6 4 17 52 44 61 34 3 -3 0 -5 -6 -5 -6 0 -9 -7 -6 -15 4
-8 1 -21 -5 -29 -13 -16 -4 -49 12 -39 6 4 7 1 2 -7 -12 -19 36 -2 58 21 17
18 17 19 -9 19 -27 0 -27 0 -8 22 10 12 13 18 7 14 -8 -4 -13 -1 -13 9 0 9 5
13 10 10 14 -9 12 2 -6 30 -24 37 -12 51 14 16 19 -26 23 -48 28 -151 6 -109
5 -120 -10 -114 -21 8 -21 7 10 -73 19 -49 26 -86 25 -132 0 -49 4 -70 19 -89
27 -34 26 -54 -2 -47 -22 6 -23 3 -23 -57 0 -35 5 -66 10 -71 11 -8 -21 -37
-42 -37 -18 0 -16 -27 2 -34 9 -3 15 0 15 9 0 21 17 18 30 -5 9 -17 8 -20 -12
-21 -19 -1 -17 -2 7 -8 33 -8 75 -29 75 -37 0 -3 -12 -26 -26 -52 -30 -56 -62
-83 -86 -76 -10 3 -18 1 -18 -4 0 -6 -7 -12 -15 -16 -12 -4 -13 -2 -6 12 5 10
6 24 1 32 -7 11 -11 11 -24 1 -9 -7 -13 -18 -9 -25 3 -6 -3 -3 -14 7 -19 17
-22 17 -37 2 -19 -20 -20 -32 -3 -38 7 -4 6 -6 -4 -6 -17 -1 -34 25 -30 47 1
6 -3 12 -9 12 -5 0 -10 -7 -10 -16 0 -11 -6 -13 -19 -9 -23 7 -51 -19 -51 -48
0 -16 -3 -18 -12 -9 -8 8 -8 15 2 26 16 20 5 50 -15 42 -8 -3 -15 -1 -15 5 0
6 -4 8 -9 4 -9 -5 -24 26 -26 49 0 5 -12 13 -27 17 -21 5 -27 3 -31 -13 -5
-16 -9 -18 -25 -9 -16 8 -25 6 -47 -15 -15 -14 -26 -26 -24 -28 2 -2 14 -9 26
-15 22 -11 22 -10 16 20 -4 23 -3 30 5 25 7 -4 12 -21 12 -38 0 -27 -3 -30
-24 -26 -19 4 -24 1 -21 -13 5 -23 -30 -53 -51 -45 -13 5 -14 9 -4 21 7 9 8
15 2 15 -12 0 -26 -29 -23 -47 1 -7 -6 -13 -15 -13 -11 0 -15 6 -11 19 3 14 0
17 -13 14 -12 -3 -16 -11 -12 -25 4 -16 2 -19 -8 -13 -8 5 -18 1 -27 -11 -7
-10 -27 -19 -44 -20 -17 -1 -36 -7 -42 -13 -9 -9 -8 -11 6 -5 12 4 16 2 12 -8
-9 -22 -64 -39 -87 -27 -10 5 -24 6 -31 2 -6 -4 -19 -8 -27 -10 -8 -1 -20 -9
-26 -17 -6 -9 -16 -16 -23 -16 -6 0 -23 -7 -36 -16 -25 -16 -97 -26 -89 -12 3
5 -1 9 -8 9 -7 1 -23 3 -35 4 -12 1 -21 -3 -20 -8 1 -6 -23 -18 -53 -27 -64
-19 -84 -26 -125 -45 -16 -8 -50 -16 -75 -18 -29 -2 -17 -4 31 -5 50 -1 89 3
114 14 21 8 43 13 51 10 7 -3 16 -1 20 5 3 5 14 7 24 4 12 -4 19 1 23 15 3 11
10 20 17 20 6 0 8 -5 4 -12 -5 -7 0 -9 14 -6 13 4 23 0 26 -8 3 -9 -4 -16 -19
-20 -13 -3 -26 -13 -30 -21 -9 -26 6 -30 22 -6 12 18 19 20 44 13 31 -9 35
-10 46 -10 4 0 -2 -7 -13 -16 -18 -14 -18 -15 6 -8 14 3 32 13 41 21 14 11 18
12 23 1 3 -7 3 -3 0 9 -3 13 1 25 9 30 8 4 22 20 31 35 13 20 14 27 4 31 -7 3
-3 6 9 6 12 1 23 6 25 13 3 7 9 8 18 3 10 -6 9 -11 -5 -22 -18 -12 -17 -13 8
-13 15 0 27 6 27 13 0 20 20 -15 20 -36 0 -11 -9 -21 -20 -24 -11 -3 -20 -9
-20 -14 0 -5 -7 -9 -16 -9 -12 0 -15 6 -10 26 6 21 4 25 -11 22 -12 -3 -17
-11 -15 -27 1 -17 -2 -22 -13 -18 -8 4 -17 2 -20 -3 -3 -4 1 -11 7 -13 10 -4
10 -6 1 -6 -14 -1 -6 -31 11 -44 6 -5 2 -6 -9 -2 -40 14 -50 11 -51 -17 -1
-16 3 -28 7 -28 20 0 7 -36 -17 -47 -22 -10 -24 -10 -14 3 7 8 9 15 4 15 -5 1
-13 2 -19 4 -5 1 -19 3 -30 4 -17 2 -15 4 8 13 35 13 34 25 -2 30 -17 2 -28 1
-25 -4 3 -4 -6 -3 -20 3 -13 7 -32 9 -42 5 -16 -6 -16 -8 2 -21 10 -8 14 -15
7 -15 -6 0 -15 5 -18 10 -3 5 -25 10 -48 10 -24 0 -53 7 -65 16 -17 11 -34 14
-59 9 -26 -5 -40 -2 -56 12 -11 10 -18 13 -14 7 8 -13 -40 -37 -48 -24 -3 5
-12 7 -19 4 -8 -3 -17 -1 -21 5 -4 8 -12 8 -26 1 -13 -7 -19 -7 -19 0 0 5 -9
1 -20 -10 -18 -18 -44 -25 -77 -21 -7 1 -13 -3 -13 -10 0 -6 -7 -9 -15 -5 -8
3 -15 1 -15 -4 0 -6 -11 -10 -25 -10 -14 0 -25 5 -25 11 0 21 -45 4 -48 -18
-2 -13 1 -23 7 -23 5 0 13 -9 16 -21 4 -12 12 -18 21 -15 23 9 71 -5 71 -19 0
-8 -6 -16 -13 -19 -18 -7 -54 4 -54 17 0 6 -3 8 -6 5 -3 -4 0 -16 6 -28 13
-24 4 -43 -10 -20 -5 8 -12 11 -16 8 -11 -11 44 -58 60 -52 10 4 16 1 17 -7 0
-8 2 -22 4 -32 2 -13 -1 -17 -11 -13 -10 4 -14 0 -12 -12 2 -9 -2 -16 -8 -15
-7 1 -14 -7 -17 -17 -3 -11 0 -20 6 -20 7 0 2 -8 -11 -18 l-23 -18 30 -23 c17
-13 27 -29 24 -37 -3 -8 0 -14 6 -14 6 0 11 -4 11 -10 0 -5 -8 -10 -17 -10
-14 0 -15 -2 -5 -9 10 -6 7 -12 -12 -25 -27 -17 -35 -51 -13 -59 8 -4 9 -6 0
-6 -8 -1 -9 -10 -3 -32 5 -18 7 -36 4 -41 -3 -5 6 -6 22 -2 19 5 25 4 20 -5
-4 -6 -1 -11 7 -11 9 0 13 -8 10 -23 -3 -14 2 -29 11 -36 13 -11 16 -11 16 2
0 10 6 13 20 10 11 -3 20 -9 20 -13 0 -12 42 -20 59 -11 9 4 27 5 41 1 14 -4
37 -3 52 1 21 6 27 3 32 -14 4 -16 8 -18 19 -9 8 7 17 9 20 6 4 -4 29 -9 57
-11 40 -3 50 -1 50 12 0 12 4 14 19 5 27 -14 31 -13 31 10 0 11 7 20 15 20 25
0 30 -4 27 -22 -2 -10 2 -18 7 -18 6 0 11 7 11 16 0 12 3 14 13 6 7 -6 23 -8
36 -5 17 4 20 8 9 15 -9 7 -4 8 15 4 17 -4 27 -2 27 5 0 8 4 8 15 -1 12 -10
18 -10 30 0 12 10 16 9 20 -2 6 -16 35 -20 35 -6 0 5 9 4 20 -2 12 -6 29 -8
40 -5 10 3 21 1 25 -4 3 -6 0 -8 -8 -5 -10 4 -16 -4 -19 -24 -3 -24 -1 -28 14
-24 12 3 18 -1 18 -12 0 -9 -3 -15 -7 -15 -24 4 -44 -3 -42 -14 3 -24 -1 -35
-17 -41 -8 -3 -13 -2 -10 3 3 5 -3 11 -14 14 -12 3 -20 0 -20 -7 0 -14 -13
-16 -85 -15 -27 1 -58 1 -67 1 -10 -1 -18 3 -18 8 0 4 -15 3 -34 -2 -19 -6
-46 -8 -60 -4 -14 3 -29 6 -32 5 -4 0 -10 4 -14 11 -4 6 -24 13 -46 16 -21 2
-52 6 -69 9 -16 2 -75 7 -130 10 -55 3 -110 8 -122 11 -12 2 -24 1 -27 -4 -2
-4 -38 -6 -78 -4 -124 7 -196 3 -204 -10 -3 -5 -11 -4 -19 2 -10 8 -23 6 -52
-8 -21 -11 -44 -17 -52 -14 -9 3 -11 0 -6 -8 5 -9 4 -11 -3 -6 -6 4 -22 0 -35
-9 -14 -9 -32 -13 -42 -9 -14 6 -16 3 -11 -13 6 -19 3 -20 -27 -16 -24 3 -38
-1 -48 -13 -13 -16 -12 -17 14 -12 15 3 27 1 27 -3 0 -5 -13 -9 -30 -9 -16 0
-30 -5 -30 -11 0 -8 -5 -8 -15 1 -9 7 -22 9 -32 5 -10 -5 -28 -7 -41 -6 -13 2
-25 -5 -30 -16 -5 -14 -19 -18 -55 -19 -27 -1 -53 -6 -59 -12 -7 -7 -19 -7
-34 -2 -13 5 -36 7 -51 4 -16 -2 -35 0 -43 6 -13 9 -13 12 4 21 17 11 17 12
-5 28 -15 9 -24 26 -24 41 0 14 -6 26 -12 26 -7 1 -16 2 -21 3 -4 0 -13 11
-21 24 -13 20 -13 21 1 9 13 -10 17 -10 21 2 8 20 -13 36 -48 36 -37 0 -46 6
-38 26 4 12 8 12 21 2 12 -10 14 -10 8 0 -4 6 -2 12 3 12 6 0 11 -8 12 -17 0
-14 2 -15 6 -3 4 8 13 20 21 26 12 9 12 12 -1 23 -9 6 -25 13 -36 14 -12 1
-21 5 -21 9 0 7 25 12 58 11 6 -1 12 8 12 19 0 14 5 18 16 14 8 -3 27 0 42 8
15 7 33 11 41 8 9 -3 11 1 6 17 -4 15 -2 21 8 21 8 0 22 9 32 20 10 11 26 20
37 20 10 0 18 5 18 11 0 5 -5 7 -11 3 -8 -4 -8 0 0 15 10 17 9 21 -4 21 -8 0
-15 3 -15 8 0 10 -81 48 -97 44 -7 -2 -13 2 -13 8 0 5 -11 10 -25 10 -13 0
-28 7 -33 15 -5 10 -24 17 -51 18 -37 1 -40 3 -25 14 10 7 25 13 35 13 23 0
86 27 91 39 1 5 20 12 41 15 21 3 47 11 58 16 10 6 30 8 44 4 18 -4 25 -2 25
9 0 8 15 22 34 31 19 9 36 21 38 27 2 7 15 13 28 14 41 4 42 5 38 17 -8 23 28
48 98 67 134 38 229 68 255 82 27 15 28 39 2 39 -9 0 -13 6 -10 14 8 19 -26
30 -51 17 -11 -6 -59 -8 -114 -6 -52 3 -108 1 -125 -4 -28 -8 -30 -7 -26 13 4
16 2 18 -5 7 -8 -11 -12 -10 -21 8 -7 12 -17 19 -22 15 -6 -3 -18 3 -28 15
-10 11 -22 17 -27 13 -4 -4 -3 0 4 10 14 17 1 35 -17 23 -5 -3 -13 0 -16 6 -4
5 -23 9 -43 7 -22 -2 -37 2 -40 10 -2 6 3 12 12 12 19 0 21 16 4 23 -7 3 -3 4
10 4 12 -1 22 -6 22 -12 0 -5 4 -3 9 5 6 8 7 18 5 22 -3 4 4 8 16 8 12 0 18
-4 15 -10 -3 -5 1 -10 9 -10 8 0 31 -7 49 -16 31 -15 36 -15 65 0 23 12 32 24
32 42 0 14 4 22 10 19 6 -3 10 -19 10 -36 0 -16 -4 -29 -10 -29 -5 0 -10 -5
-10 -11 0 -7 18 -9 58 -4 55 6 57 6 74 -23 18 -31 15 -44 -8 -35 -8 3 -14 0
-14 -6 0 -8 14 -11 40 -8 22 2 43 0 46 -5 3 -5 11 -4 19 2 7 6 17 10 21 9 21
-4 25 2 13 18 -8 9 -9 14 -2 10 6 -4 13 -1 16 5 2 7 8 1 12 -14 4 -16 11 -28
17 -28 5 0 7 4 4 9 -4 5 2 7 11 5 14 -4 18 1 18 20 0 20 -5 26 -22 26 -27 0
-31 15 -7 24 13 5 14 9 4 21 -7 8 -21 15 -31 15 -10 0 -21 5 -24 10 -4 6 -10
8 -15 5 -5 -3 -12 0 -16 6 -4 8 -9 7 -15 -2 -7 -11 -9 -10 -9 4 0 10 -5 15
-10 12 -6 -4 -8 -9 -6 -13 7 -11 -58 -8 -70 3 -13 11 -7 28 7 20 5 -3 6 1 3 9
-3 9 -14 16 -23 16 -9 0 -21 4 -27 10 -5 5 -33 12 -63 15 -30 3 -60 10 -67 16
-11 9 -14 8 -14 0 0 -7 -5 -9 -12 -5 -8 5 -9 1 -4 -12 6 -17 6 -18 -9 -3 -12
12 -14 21 -6 42 9 22 8 27 -5 27 -11 0 -14 -5 -9 -17 5 -15 4 -16 -6 -5 -7 6
-18 12 -24 12 -5 0 -4 -4 4 -9 8 -5 11 -16 8 -25 -6 -14 -10 -14 -26 -4 -11 7
-17 15 -13 18 14 10 8 55 -8 55 -8 0 -21 4 -29 9 -10 6 -12 5 -7 -2 4 -7 1
-12 -8 -12 -9 0 -16 6 -16 14 0 19 -50 58 -66 52 -8 -3 -11 1 -7 10 3 8 -1 14
-10 14 -8 0 -17 -5 -19 -12 -3 -8 -9 -8 -24 0 -10 6 -16 12 -12 12 12 0 -34
50 -46 50 -6 0 -28 11 -49 25 -29 20 -37 22 -37 10 0 -18 -16 -20 -23 -2 -3 9
-9 9 -25 0 -16 -10 -29 -10 -49 -2 -15 6 -29 10 -30 10 -12 -4 -23 1 -19 7 3
4 -8 7 -25 6 -16 -1 -31 2 -34 6 -3 4 -14 6 -25 3 -11 -3 -20 0 -20 6 0 6 -5
11 -11 11 -5 0 -7 -4 -4 -10 3 -5 2 -10 -4 -10 -5 0 -13 9 -16 20 -7 22 -35
28 -36 8 0 -7 -5 -3 -11 10 -13 25 -49 30 -68 7 -9 -10 -9 -15 -1 -15 6 0 11
5 11 11 0 5 5 7 11 4 7 -5 5 -13 -5 -24 -26 -29 -20 -43 14 -36 26 6 31 3 40
-19 6 -16 17 -26 30 -26 11 0 20 -5 20 -11 0 -5 -4 -8 -9 -5 -5 4 -12 0 -14
-6 -4 -10 -6 -10 -6 0 -1 6 -9 12 -18 12 -11 0 -14 -3 -7 -8 6 -4 4 -13 -7
-24 -14 -14 -18 -14 -23 -2 -3 7 -12 11 -21 8 -9 -4 -15 0 -15 10 0 10 5 13
18 9 14 -6 15 -4 5 8 -10 13 -10 16 3 16 10 0 14 -7 11 -19 -3 -10 0 -18 7
-18 15 0 18 42 4 52 -7 3 -25 4 -42 1 -25 -5 -28 -4 -23 11 4 10 3 15 -3 11
-6 -3 -10 -13 -10 -21 0 -8 -4 -14 -10 -14 -5 0 -10 5 -10 11 0 5 -4 8 -9 4
-5 -3 -12 3 -14 12 -3 13 -5 12 -6 -5 0 -13 -5 -20 -11 -17 -6 4 -8 11 -5 16
4 5 1 9 -4 9 -6 0 -10 5 -9 12 2 7 -3 12 -10 13 -8 0 -19 8 -26 18 -7 9 -17
17 -21 17 -4 0 -2 -6 4 -14 8 -10 9 -16 1 -21 -5 -3 -10 -2 -10 4 0 6 -7 8
-15 5 -10 -4 -15 0 -15 10 0 14 -4 15 -22 5 -23 -12 -23 -12 -5 9 18 20 16 42
-4 42 -5 0 -15 5 -22 10 -7 6 -21 17 -32 25 -11 9 -15 14 -10 13 6 -1 20 1 33
6 19 6 20 9 8 22 -19 18 -35 18 -42 -1 -4 -8 -10 -12 -15 -9 -5 3 -9 1 -9 -5
0 -13 -30 -2 -50 18 -16 16 -17 16 36 -5 12 -5 14 -1 8 22 -10 41 -11 42 -39
36 -14 -2 -25 0 -25 7 0 6 8 8 17 4 14 -4 15 -3 7 6 -8 9 -17 9 -38 0 -21 -10
-29 -10 -39 1 -10 10 -8 12 10 7 13 -3 24 1 27 8 6 17 -3 25 -26 25 -10 0 -18
5 -18 10 0 6 -8 10 -17 10 -17 1 -17 1 -1 14 13 10 15 15 6 24 -7 7 -18 12
-26 12 -10 0 -13 8 -10 25 6 27 -6 34 -16 10 -3 -8 -10 -15 -17 -15 -6 0 -8 7
-5 16 3 8 2 12 -4 9 -6 -3 -10 1 -10 9 0 9 -4 16 -9 16 -23 0 -4 49 35 91 23
25 45 55 48 67 4 12 11 22 16 22 14 0 171 134 170 145 -1 14 32 63 62 91 24
23 42 31 66 31 27 0 33 -4 29 -19 -3 -10 0 -18 6 -19 7 0 2 -5 -10 -11 -13 -6
-23 -14 -23 -19 0 -4 -18 -10 -41 -14 -28 -5 -38 -10 -31 -17 6 -6 19 -7 29
-3 10 4 32 7 48 6 23 -1 27 0 15 8 -11 8 -11 11 -2 11 7 0 11 4 8 9 -3 5 1 12
10 15 9 4 14 13 10 21 -7 19 9 19 39 -1 23 -15 25 -15 36 9 13 30 21 28 98
-21 44 -28 57 -32 75 -24 20 10 20 11 -4 11 -36 2 -57 16 -35 25 9 3 25 6 35
6 10 0 21 7 24 16 5 13 3 14 -6 7 -22 -18 -82 -22 -93 -6 -6 8 -20 15 -31 15
-12 1 -21 9 -20 18 1 11 -8 15 -31 14 -18 -1 -33 2 -33 7 0 5 5 9 11 9 5 0 7
5 4 10 -3 6 -15 10 -26 10 -10 0 -19 5 -19 11 0 16 51 2 76 -22 22 -21 44 -25
44 -8 0 6 5 9 11 7 6 -2 11 -8 11 -13 0 -18 19 -34 33 -29 16 7 8 34 -10 34
-7 0 -15 7 -18 15 -5 10 4 16 31 20 20 4 48 8 62 11 14 2 38 7 54 10 38 7 46
12 46 30 0 18 8 18 25 0 15 -14 9 -60 -6 -50 -5 3 -9 0 -9 -5 0 -10 13 -15 32
-12 11 1 3 -28 -12 -42 -8 -7 -10 -8 -7 -1 11 19 -23 25 -46 9 -12 -8 -16 -15
-10 -15 7 0 15 5 18 10 9 15 25 12 25 -5 0 -8 5 -15 10 -15 6 0 10 -8 10 -17
0 -15 2 -16 10 -3 8 12 10 12 15 -2 10 -24 -2 -38 -32 -38 -21 0 -24 -2 -13
-15 15 -18 42 -19 58 -3 9 9 12 9 12 0 0 -7 7 -12 15 -12 8 0 15 6 15 14 0 7
-7 19 -15 26 -17 14 -20 30 -5 30 6 0 10 -6 10 -12 0 -7 7 -21 15 -32 13 -17
15 -17 30 -2 16 16 16 17 -7 20 -24 2 -16 22 15 36 37 17 39 33 5 40 -33 8
-10 17 37 15 39 -2 65 12 65 35 0 8 8 7 24 -4 14 -9 32 -13 40 -10 9 3 16 1
16 -5 0 -6 -7 -11 -15 -11 -8 0 -15 -5 -15 -11 0 -6 7 -8 16 -5 9 3 20 6 25 6
6 0 6 8 -1 19 -13 25 -13 51 0 51 6 0 10 -8 10 -17 0 -13 3 -14 12 -5 7 7 20
12 31 12 10 0 15 5 12 10 -4 6 -11 7 -17 4 -6 -4 -9 -1 -6 7 3 8 15 13 28 11
17 -3 21 0 17 12 -4 10 -1 13 9 9 17 -6 19 8 2 25 -9 9 -9 15 0 24 14 14 16
48 3 48 -6 0 -13 -5 -16 -11 -4 -6 -13 -8 -21 -5 -8 3 -14 1 -14 -4 0 -6 -9
-10 -21 -10 -11 0 -29 -5 -39 -10 -12 -6 -21 -6 -25 -1 -3 6 9 17 27 25 18 9
46 26 61 39 l29 23 -34 2 c-18 2 -34 7 -36 12 -2 5 -11 6 -20 3 -13 -4 -12 0
5 18 12 13 32 35 45 49 23 25 32 50 18 50 -4 0 -13 -6 -20 -14 -13 -17 -44
-10 -33 7 4 6 7 24 8 39 1 16 10 35 21 43 16 12 21 12 34 -1 9 -9 11 -17 5
-22 -13 -9 -18 -32 -7 -32 4 0 13 5 19 11 12 12 44 5 42 -8 -3 -21 3 -31 20
-36 17 -4 18 -2 8 14 -13 22 0 40 14 19 7 -11 8 -7 3 14 -6 26 -5 27 15 17 11
-7 21 -19 21 -27 0 -9 6 -14 13 -11 13 5 11 40 -4 45 -5 2 -6 14 -3 27 3 12 1
26 -4 29 -6 3 -8 15 -5 26 4 15 13 19 37 17 31 -2 41 -20 25 -42 -4 -6 -4 -17
0 -24 6 -10 10 -8 15 5 6 16 8 16 16 4 13 -21 12 -43 -1 -34 -8 4 -10 -6 -6
-35 5 -50 9 -55 39 -48 16 4 23 14 24 32 1 14 -3 25 -8 25 -6 0 -5 6 2 15 7 8
9 15 5 15 -4 0 -3 6 4 13 7 9 7 17 0 24 -6 6 1 8 22 5 29 -4 32 -3 26 19 -3
12 -2 28 4 35 8 9 5 11 -9 8 -10 -3 -24 2 -31 10 -8 9 -24 16 -36 16 -16 0
-24 7 -27 25 -6 29 11 34 19 6 3 -12 11 -17 19 -14 8 3 14 1 14 -5 0 -14 43
-23 54 -12 7 7 3 10 -9 10 -14 0 -16 3 -8 11 16 16 4 46 -19 52 -11 3 -18 12
-16 19 3 7 -2 19 -10 27 -10 11 -11 16 -3 19 9 3 9 7 0 19 -7 8 -8 13 -3 12
19 -3 34 1 34 12 0 5 -4 8 -9 4 -9 -5 -22 22 -26 55 -2 8 -6 23 -10 33 -5 12
-3 17 6 15 8 -2 13 4 11 13 -3 21 35 20 48 -1 8 -12 10 -12 10 4 0 14 3 17 10
10 8 -8 7 -23 -3 -52 -10 -29 -11 -42 -3 -45 8 -3 7 -10 -1 -26 -17 -27 -17
-54 0 -45 6 4 9 4 5 -1 -4 -4 -3 -16 3 -27 8 -14 14 -17 23 -9 7 6 17 7 21 3
5 -4 5 -2 1 5 -4 7 -13 10 -21 6 -8 -3 -15 -1 -15 4 0 9 6 11 48 15 22 3 25
24 9 56 -12 25 1 42 34 42 9 0 19 9 22 20 3 11 1 18 -4 14 -5 -3 -9 0 -9 5 0
6 -7 11 -16 11 -10 0 -14 5 -10 15 7 20 -22 32 -37 15 -9 -10 -9 -11 0 -6 7 4
14 -5 18 -24 4 -17 11 -28 16 -24 5 3 9 0 9 -5 0 -17 -18 -13 -29 7 -10 16
-10 15 -11 -3 0 -18 -1 -18 -16 3 -8 12 -12 27 -9 32 3 6 2 10 -3 10 -5 0 -12
10 -15 21 -5 19 -3 21 24 15 17 -3 28 -2 25 2 -2 4 4 8 14 9 12 1 20 -6 22
-20 2 -12 11 -23 21 -25 18 -4 20 16 2 31 -6 6 -6 10 3 14 6 2 9 9 6 15 -4 6
2 5 15 -1 24 -13 29 -26 6 -17 -21 7 -19 -7 4 -35 11 -13 23 -20 27 -16 5 4 2
12 -5 16 -19 12 -4 32 17 24 15 -6 15 -5 3 10 -7 9 -19 17 -25 17 -6 0 -17 9
-24 20 -13 22 -62 28 -62 8 0 -10 -2 -10 -9 0 -5 9 -27 12 -72 10 l-64 -3 30
-18 c17 -10 22 -16 13 -13 -12 3 -18 0 -18 -9 0 -8 -5 -15 -12 -15 -6 0 -8 3
-5 7 4 3 -2 13 -13 20 -11 8 -18 19 -15 24 4 5 -289 9 -759 9 l-766 0 0 -390z
m3460 348 c0 -5 -7 -3 -15 6 -8 8 -15 18 -15 22 0 3 7 1 15 -6 8 -7 15 -17 15
-22z m-2045 12 c3 -6 -1 -7 -9 -4 -18 7 -21 14 -7 14 6 0 13 -4 16 -10z m2102
-5 c0 -8 -4 -15 -9 -15 -4 0 -8 7 -8 15 0 8 4 15 8 15 5 0 9 -7 9 -15z m-2067
-5 c0 -5 -2 -10 -4 -10 -3 0 -8 5 -11 10 -3 6 -1 10 4 10 6 0 11 -4 11 -10z
m2140 -15 c6 3 15 3 20 0 11 -7 -12 -35 -29 -35 -6 0 -11 -5 -11 -11 0 -5 -4
-7 -10 -4 -16 10 -12 -12 6 -29 14 -15 14 -16 -3 -16 -25 1 -62 31 -45 37 6 3
12 13 12 24 0 10 5 19 10 19 6 0 10 -5 10 -11 0 -5 5 -7 10 -4 14 8 13 26 -1
23 -6 -2 -14 3 -16 10 -4 11 -1 12 16 3 12 -7 26 -9 31 -6z m-2075 -14 c3 -6
-2 -14 -12 -19 -14 -9 -15 -13 -4 -26 9 -11 10 -16 2 -16 -12 0 -13 3 -16 43
-2 26 17 38 30 18z m1935 -31 c0 -5 -2 -10 -4 -10 -3 0 -8 5 -11 10 -3 6 -1
10 4 10 6 0 11 -4 11 -10z m-1980 -14 c0 -2 -7 -7 -16 -10 -8 -3 -12 -2 -9 4
6 10 25 14 25 6z m-1246 -43 c-23 -17 -34 -17 -34 0 0 24 22 38 38 25 12 -10
11 -14 -4 -25z m-24 -54 c0 -6 -4 -7 -10 -4 -5 3 -10 11 -10 16 0 6 5 7 10 4
6 -3 10 -11 10 -16z m1255 10 c10 -15 -3 -25 -16 -12 -6 6 -18 9 -27 6 -10 -4
-13 -2 -8 5 9 15 43 16 51 1z m55 1 c0 -5 -2 -10 -4 -10 -3 0 -8 5 -11 10 -3
6 -1 10 4 10 6 0 11 -4 11 -10z m5 -48 c-3 -3 -11 0 -18 7 -9 10 -8 11 6 5 10
-3 15 -9 12 -12z m145 -2 c0 -5 -7 -10 -16 -10 -8 0 -12 5 -9 10 3 6 10 10 16
10 5 0 9 -4 9 -10z m2675 -25 l18 -30 -21 19 c-12 11 -22 26 -22 34 0 17 -1
18 25 -23z m-2935 4 c0 -6 -4 -7 -10 -4 -5 3 -10 11 -10 16 0 6 5 7 10 4 6 -3
10 -11 10 -16z m2971 -82 c-10 -9 -11 -8 -5 6 3 10 9 15 12 12 3 -3 0 -11 -7
-18z m-2806 -7 c3 -5 2 -10 -4 -10 -5 0 -13 5 -16 10 -3 6 -2 10 4 10 5 0 13
-4 16 -10z m-1415 -34 c0 -3 -4 -8 -10 -11 -5 -3 -10 -1 -10 4 0 6 5 11 10 11
6 0 10 -2 10 -4z m4273 -16 c20 -18 -10 -16 -33 2 l-25 21 25 -8 c14 -4 29
-11 33 -15z m-3693 -30 c0 -5 -5 -10 -11 -10 -5 0 -7 5 -4 10 3 6 8 10 11 10
2 0 4 -4 4 -10z m-650 -31 c0 -5 -4 -9 -8 -9 -5 0 -9 7 -9 15 0 8 4 12 9 9 4
-3 8 -9 8 -15z m1115 11 c-3 -5 -11 -10 -16 -10 -6 0 -7 5 -4 10 3 6 11 10 16
10 6 0 7 -4 4 -10z m345 0 c0 -5 -4 -10 -10 -10 -5 0 -10 5 -10 10 0 6 5 10
10 10 6 0 10 -4 10 -10z m-1417 -47 c-7 -2 -19 -2 -25 0 -7 3 -2 5 12 5 14 0
19 -2 13 -5z m1196 -14 c-12 -8 -12 -11 1 -18 8 -6 11 -13 7 -17 -4 -4 -15 0
-24 9 -13 13 -14 19 -4 31 8 9 18 13 23 10 6 -4 5 -10 -3 -15z m231 7 c0 -11
-19 -15 -25 -6 -3 5 1 10 9 10 9 0 16 -2 16 -4z m-503 -48 c-14 -9 -29 0 -22
13 4 5 1 9 -4 9 -6 0 -11 5 -11 10 0 6 11 3 24 -7 15 -11 20 -21 13 -25z
m2223 32 c0 -5 -2 -10 -4 -10 -3 0 -8 5 -11 10 -3 6 -1 10 4 10 6 0 11 -4 11
-10z m-2190 -40 c-14 -11 -28 -20 -32 -20 -4 0 -8 -10 -10 -22 l-3 -23 -13 22
c-11 20 -9 23 26 41 49 25 63 26 32 2z m-830 -30 c-19 -13 -30 -13 -30 0 0 6
10 10 23 10 18 0 19 -2 7 -10z m75 -2 c4 4 5 -3 2 -16 -3 -15 0 -25 9 -29 8
-3 11 -9 8 -15 -3 -5 -11 -4 -19 2 -15 13 -55 5 -55 -11 0 -5 -4 -9 -10 -9
-13 0 -13 37 0 45 6 4 8 10 5 15 -8 13 28 30 41 19 6 -5 14 -5 19 -1z m109 4
c2 -4 -4 -8 -14 -8 -10 0 -16 4 -14 8 3 4 9 8 14 8 5 0 11 -4 14 -8z m637 -15
c-10 -9 -11 -8 -5 6 3 10 9 15 12 12 3 -3 0 -11 -7 -18z m-666 -43 c-12 -24
-15 -25 -15 -8 0 11 5 25 12 32 18 18 20 8 3 -24z m475 -24 c0 -5 -5 -10 -11
-10 -5 0 -7 5 -4 10 3 6 8 10 11 10 2 0 4 -4 4 -10z m300 -8 c0 -10 -38 -42
-50 -42 -15 0 -12 37 3 43 19 8 47 8 47 -1z m-775 -16 c-20 -14 -35 -12 -35 5
0 5 12 9 27 9 26 0 26 -1 8 -14z m445 10 c0 -3 -4 -8 -10 -11 -5 -3 -10 -1
-10 4 0 6 5 11 10 11 6 0 10 -2 10 -4z m-365 -16 c3 -5 1 -10 -4 -10 -6 0 -11
5 -11 10 0 6 2 10 4 10 3 0 8 -4 11 -10z m-155 -14 c0 -2 -7 -7 -16 -10 -8 -3
-12 -2 -9 4 6 10 25 14 25 6z m56 -7 c7 -12 -15 -31 -28 -23 -4 3 -8 12 -8 20
0 17 26 19 36 3z m219 -19 c-3 -5 1 -10 7 -13 9 -3 6 -10 -9 -22 -13 -9 -23
-23 -23 -31 0 -8 -4 -14 -10 -14 -15 0 -12 12 11 36 18 19 19 23 5 37 -21 21
-20 26 4 20 11 -3 18 -9 15 -13z m3250 10 c3 -5 2 -10 -4 -10 -5 0 -13 5 -16
10 -3 6 -2 10 4 10 5 0 13 -4 16 -10z m-3309 -48 c-11 -10 -15 4 -8 28 l7 25
3 -23 c2 -13 1 -26 -2 -30z m3494 40 c0 -11 -41 -45 -47 -39 -6 6 28 47 39 47
5 0 8 -3 8 -8z m-3742 -28 c-11 -11 -23 -14 -35 -9 -17 7 -17 8 2 15 11 5 27
9 35 9 12 1 11 -2 -2 -15z m69 -10 c15 -33 6 -85 -14 -77 -15 6 -93 -73 -93
-94 0 -6 -18 -26 -40 -43 -22 -17 -40 -40 -40 -50 0 -9 -7 -24 -16 -31 -15
-12 -16 -11 -9 10 4 14 7 53 6 88 -1 45 4 71 16 91 25 39 33 42 88 35 28 -3
47 -2 43 2 -4 4 -2 17 4 28 8 17 8 19 -5 14 -11 -4 -14 -2 -10 9 7 19 19 18
27 -3 5 -12 10 -13 18 -5 9 9 7 17 -7 32 -18 19 -18 20 1 20 11 0 24 -12 31
-26z m102 14 c4 7 12 8 21 2 19 -12 13 -17 -34 -25 -25 -5 -37 -4 -33 2 4 6
-3 8 -18 5 -14 -2 -25 0 -25 6 0 14 52 20 68 8 9 -6 16 -6 21 2z m618 -19
c-14 -3 -21 -12 -19 -22 2 -9 -2 -17 -8 -17 -17 0 -11 22 12 47 16 17 24 20
30 11 5 -9 0 -15 -15 -19z m2773 17 c0 -17 -14 -29 -23 -20 -8 8 3 34 14 34 5
0 9 -6 9 -14z m-2680 -16 c0 -5 -4 -10 -10 -10 -5 0 -10 5 -10 10 0 6 5 10 10
10 6 0 10 -4 10 -10z m-930 -9 c0 -5 -9 -11 -21 -14 -16 -4 -18 -3 -8 9 13 16
29 19 29 5z m406 -8 c11 -15 15 -15 23 -4 6 10 10 10 16 1 13 -21 -9 -31 -43
-19 -20 7 -29 15 -25 25 7 18 13 18 29 -3z m455 -22 c-12 -12 -27 -21 -33 -21
-7 1 0 12 17 25 35 29 46 26 16 -4z m-582 -13 c0 -7 -19 -28 -41 -46 -23 -18
-47 -43 -53 -55 -6 -12 -21 -23 -33 -25 -22 -3 -32 -22 -11 -22 13 0 -33 -59
-97 -123 -45 -46 -49 -48 -62 -30 -12 16 -13 14 -7 -18 6 -34 4 -38 -43 -73
-27 -20 -55 -36 -61 -36 -6 0 -11 -9 -11 -20 0 -11 -7 -20 -15 -20 -18 0 -18
1 -6 32 5 13 9 28 11 33 3 16 41 75 66 104 52 58 92 108 121 151 38 56 69 84
82 75 6 -3 11 1 11 10 0 9 4 14 9 10 5 -3 12 4 16 15 3 11 18 27 33 35 34 18
92 20 91 3z m601 -22 c0 -14 -7 -31 -15 -39 -15 -16 -10 -27 12 -27 8 0 12 4
9 9 -3 5 1 11 9 15 18 7 20 -5 3 -22 -20 -20 -46 -13 -56 16 -7 17 -11 21 -11
9 -1 -10 -12 -22 -26 -27 -21 -8 -24 -13 -16 -29 9 -15 7 -20 -10 -24 -16 -4
-18 -3 -9 8 8 10 8 15 0 20 -8 5 -8 11 -1 19 6 7 7 16 3 21 -4 4 5 6 19 3 20
-4 25 -1 25 16 -1 22 5 23 39 10 17 -7 18 -5 8 7 -10 12 -10 18 -1 27 16 16
18 15 18 -12z m-516 -11 c10 -10 17 -12 21 -4 5 7 10 8 18 0 7 -7 6 -15 -3
-26 -7 -8 -10 -19 -6 -22 4 -4 12 -1 17 7 8 11 12 12 15 3 4 -9 13 -9 30 -2
14 5 26 9 28 9 1 0 2 -9 3 -20 2 -23 -35 -28 -56 -7 -10 10 -16 7 -31 -13 -19
-25 -20 -25 -50 -7 -38 21 -98 23 -106 3 -6 -16 -34 -30 -34 -18 0 4 21 31 46
60 48 55 79 66 108 37z m541 5 c3 -5 1 -10 -4 -10 -6 0 -11 5 -11 10 0 6 2 10
4 10 3 0 8 -4 11 -10z m74 -4 c10 -12 9 -14 -6 -11 -10 2 -22 4 -26 4 -10 1 1
21 12 21 5 0 14 -6 20 -14z m3236 4 c3 -5 1 -10 -4 -10 -6 0 -11 5 -11 10 0 6
2 10 4 10 3 0 8 -4 11 -10z m-3770 -20 c3 -5 1 -10 -4 -10 -6 0 -11 5 -11 10
0 6 2 10 4 10 3 0 8 -4 11 -10z m115 -20 c0 -5 -5 -10 -11 -10 -5 0 -7 5 -4
10 3 6 8 10 11 10 2 0 4 -4 4 -10z m3044 -6 c3 -8 2 -13 -3 -10 -5 3 -8 -6 -8
-20 0 -24 0 -24 14 -5 27 39 84 -9 68 -58 -4 -14 0 -21 15 -26 13 -4 19 -12
16 -21 -3 -7 -1 -16 4 -19 6 -4 5 -15 -2 -28 -19 -34 -20 -57 -2 -57 13 0 15
-7 9 -42 -7 -39 -6 -41 9 -29 9 7 16 10 16 5 0 -5 4 -3 9 5 8 12 12 12 26 -2
9 -10 21 -17 26 -17 5 0 9 -7 9 -16 0 -22 25 -11 26 12 2 38 4 44 15 44 8 0 7
-5 -1 -15 -21 -26 -2 -30 24 -6 14 13 36 24 50 25 15 0 26 7 26 15 0 7 -6 11
-14 8 -10 -4 -13 -1 -9 9 3 7 9 14 14 14 10 0 30 -35 27 -47 -3 -11 54 -131
86 -182 20 -31 23 -41 12 -41 -8 0 -19 -7 -24 -17 -5 -9 -22 -17 -38 -19 -16
-2 -30 -8 -32 -13 -2 -5 -11 -7 -20 -4 -9 3 -14 3 -10 -1 8 -10 -32 -56 -49
-56 -7 0 -13 -8 -13 -19 0 -15 -7 -18 -32 -17 -18 2 -38 -1 -45 -6 -8 -7 -10
-3 -6 11 3 12 1 21 -5 21 -5 0 -13 7 -16 16 -7 19 11 94 23 94 14 0 48 80 56
128 4 23 11 42 16 42 6 0 7 5 3 11 -10 17 -33 -12 -37 -49 -5 -42 -17 -54 -17
-16 -1 25 -2 27 -11 11 -6 -11 -9 -30 -6 -43 2 -13 1 -24 -4 -24 -4 0 -13 -17
-19 -37 -7 -21 -19 -45 -26 -54 -8 -9 -11 -18 -8 -21 3 -3 -5 -30 -17 -58 -21
-48 -21 -53 -6 -62 21 -11 22 -45 2 -45 -8 0 -15 5 -15 11 -1 13 -29 -35 -29
-49 -1 -5 3 -3 9 5 12 19 22 8 14 -14 -5 -13 -15 -17 -40 -14 -18 2 -30 0 -27
-5 3 -5 -1 -14 -8 -19 -10 -7 -8 -8 8 -5 13 3 25 1 28 -3 3 -4 -18 -7 -45 -5
-28 2 -48 0 -46 -4 3 -4 -3 -12 -12 -17 -14 -9 -17 -7 -18 17 -1 26 2 28 32
25 19 -1 34 1 34 6 0 4 -15 8 -34 8 -32 0 -34 2 -40 43 -20 120 -38 247 -41
287 -8 95 -16 175 -20 187 -2 6 3 14 10 17 8 3 12 12 9 21 -3 8 -2 15 4 15 6
0 13 -6 15 -12 4 -8 6 -7 6 4 1 9 4 18 9 21 4 2 1 2 -7 0 -15 -4 -31 13 -31
35 0 19 28 14 50 -8 25 -25 34 -26 19 -1 -13 20 -6 51 12 51 6 0 9 -7 5 -15
-3 -9 0 -15 8 -15 21 0 26 11 11 26 -8 8 -12 23 -10 34 2 13 0 18 -7 14 -7 -4
-8 4 -3 25 4 18 3 31 -3 31 -6 0 -6 10 1 25 14 29 22 31 31 9z m46 1 c0 -8 -4
-15 -9 -15 -13 0 -22 16 -14 24 11 11 23 6 23 -9z m210 5 c0 -5 6 -7 13 -4 8
3 14 -2 14 -11 0 -17 -13 -20 -22 -5 -4 6 -10 8 -14 6 -4 -3 -8 1 -8 9 0 8 4
15 9 15 4 0 8 -4 8 -10z m-780 -30 c0 -5 -5 -10 -11 -10 -5 0 -7 5 -4 10 3 6
8 10 11 10 2 0 4 -4 4 -10z m722 -17 c23 -27 30 -43 20 -43 -5 0 -14 10 -21
23 -10 21 -11 21 -6 1 4 -14 0 -24 -10 -28 -8 -3 -15 -1 -15 5 0 6 -8 8 -18 5
-13 -4 -19 -1 -19 9 0 9 6 14 14 11 9 -4 11 -1 7 5 -4 6 0 15 7 20 20 12 24
11 41 -8z m-3122 3 c0 -3 -4 -8 -10 -11 -5 -3 -10 -1 -10 4 0 6 5 11 10 11 6
0 10 -2 10 -4z m2850 -22 c0 -8 -4 -12 -10 -9 -5 3 -10 13 -10 21 0 8 5 12 10
9 6 -3 10 -13 10 -21z m340 22 c0 -2 -7 -6 -15 -10 -8 -3 -15 -1 -15 4 0 6 7
10 15 10 8 0 15 -2 15 -4z m-3156 -37 c-1 -17 -5 -33 -8 -36 -8 -8 -36 17 -36
31 0 6 5 4 10 -4 9 -13 10 -13 10 1 0 11 18 39 25 39 1 0 0 -14 -1 -31z m3286
17 c0 -3 -4 -8 -10 -11 -5 -3 -10 -1 -10 4 0 6 5 11 10 11 6 0 10 -2 10 -4z
m-110 -10 c0 -3 -4 -8 -10 -11 -5 -3 -10 -1 -10 4 0 6 5 11 10 11 6 0 10 -2
10 -4z m-3635 -29 c11 -2 -1 -5 -27 -6 -27 0 -48 3 -48 8 0 12 32 19 45 10 6
-4 19 -9 30 -12z m3455 -8 c0 -6 -4 -7 -10 -4 -5 3 -10 11 -10 16 0 6 5 7 10
4 6 -3 10 -11 10 -16z m380 11 c8 -5 11 -10 5 -10 -5 0 -17 5 -25 10 -8 5 -10
10 -5 10 6 0 17 -5 25 -10z m-85 -30 c10 -11 13 -20 7 -20 -7 0 -12 -5 -12
-11 0 -5 4 -8 9 -4 19 11 103 23 92 12 -5 -5 -7 -23 -4 -39 4 -21 2 -28 -8
-26 -8 2 -16 6 -19 9 -3 3 -16 2 -30 -2 -18 -5 -20 -8 -7 -9 9 -1 22 -4 27 -5
6 -1 17 -3 26 -4 19 -1 16 -42 -7 -96 -6 -16 -11 -43 -10 -60 1 -25 0 -27 -9
-13 -6 10 -12 34 -14 53 -2 19 -8 40 -13 47 -26 34 -26 40 -2 28 22 -10 23
-10 5 4 -10 8 -22 17 -25 18 -13 6 -51 91 -51 114 0 29 20 31 45 4z m-950 -8
c-3 -3 -11 0 -18 7 -9 10 -8 11 6 5 10 -3 15 -9 12 -12z m495 8 c0 -5 -4 -10
-10 -10 -5 0 -10 5 -10 10 0 6 5 10 10 10 6 0 10 -4 10 -10z m520 0 c0 -5 -7
-10 -15 -10 -8 0 -15 5 -15 10 0 6 7 10 15 10 8 0 15 -4 15 -10z m-256 -25
c-4 -8 -11 -15 -16 -15 -6 0 -5 6 2 15 7 8 14 15 16 15 2 0 1 -7 -2 -15z m116
5 c0 -5 -2 -10 -4 -10 -3 0 -8 5 -11 10 -3 6 -1 10 4 10 6 0 11 -4 11 -10z
m-190 -27 c0 -13 3 -13 15 -3 12 10 15 10 15 -3 0 -8 -7 -20 -15 -27 -9 -8
-13 -21 -9 -36 4 -15 2 -24 -5 -24 -7 0 -11 16 -10 43 1 23 -2 51 -6 61 -6 14
-5 17 3 12 7 -4 12 -14 12 -23z m190 -3 c0 -5 -4 -10 -10 -10 -5 0 -10 5 -10
10 0 6 5 10 10 10 6 0 10 -4 10 -10z m-104 -27 c-10 -10 -19 5 -10 18 6 11 8
11 12 0 2 -7 1 -15 -2 -18z m68 12 c3 -9 0 -15 -8 -15 -8 0 -16 7 -20 15 -3 9
0 15 8 15 8 0 16 -7 20 -15z m-174 -25 c0 -5 -2 -10 -4 -10 -3 0 -8 5 -11 10
-3 6 -1 10 4 10 6 0 11 -4 11 -10z m-490 -50 c0 -5 -5 -10 -11 -10 -5 0 -7 5
-4 10 3 6 8 10 11 10 2 0 4 -4 4 -10z m175 0 c3 -5 -1 -10 -9 -10 -9 0 -16 5
-16 10 0 6 4 10 9 10 6 0 13 -4 16 -10z m49 -176 c3 -8 2 -12 -4 -9 -6 3 -10
10 -10 16 0 14 7 11 14 -7z m634 -167 c-15 -12 -42 -31 -60 -41 l-33 -19 20
21 c18 18 83 60 95 61 3 0 -7 -10 -22 -22z m56 -22 c-7 -16 -24 -21 -24 -6 0
8 7 13 27 20 1 1 0 -6 -3 -14z m-369 -1 c13 -5 14 -8 3 -15 -19 -12 -25 -11
-25 6 0 17 0 17 22 9z m130 -63 c-3 -6 -14 -11 -23 -11 -15 1 -15 2 2 15 21
16 32 13 21 -4z m-105 -57 c0 -2 -9 -4 -20 -4 -11 0 -20 4 -20 9 0 5 9 7 20 4
11 -3 20 -7 20 -9z m-60 -4 c0 -5 -2 -10 -4 -10 -3 0 -8 5 -11 10 -3 6 -1 10
4 10 6 0 11 -4 11 -10z m194 -26 c9 -3 16 -2 16 4 0 5 12 7 26 4 l27 -5 -24
-13 c-15 -9 -19 -14 -9 -14 8 -1 4 -6 -9 -11 -13 -5 -33 -7 -44 -3 -13 4 -17
2 -13 -5 10 -16 0 -14 -18 4 -9 9 -17 11 -21 5 -3 -5 -1 -10 4 -10 6 0 11 -12
11 -26 0 -19 -4 -25 -15 -20 -9 3 -15 0 -15 -10 0 -8 -6 -14 -12 -13 -7 2 -31
-3 -52 -9 -22 -6 -42 -9 -44 -7 -3 2 -17 -4 -31 -14 -14 -10 -31 -16 -38 -14
-6 2 -14 -1 -18 -7 -4 -7 -1 -10 6 -8 8 1 14 -2 14 -7 1 -16 -27 -5 -51 19
l-22 21 39 -3 c21 -2 39 0 39 5 0 13 -59 36 -75 29 -8 -3 -15 -1 -15 5 0 5 8
13 17 16 15 6 15 7 -3 15 -18 8 -18 8 1 4 11 -2 27 -7 36 -11 10 -3 23 0 30 8
7 7 24 11 37 9 17 -3 23 -1 18 7 -4 6 -15 11 -24 11 -15 1 -15 2 1 11 14 8 21
7 31 -7 15 -19 33 -3 20 19 -6 9 -4 9 7 1 19 -15 49 -14 49 2 0 26 75 37 124
18z m-361 -110 c9 -9 -4 -35 -14 -28 -5 3 -9 12 -9 20 0 14 12 19 23 8z
m-3532 -27 c-10 -9 -11 -8 -5 6 3 10 9 15 12 12 3 -3 0 -11 -7 -18z m3670 -40
c-10 -9 -11 -8 -5 6 3 10 9 15 12 12 3 -3 0 -11 -7 -18z m34 13 c3 -5 1 -10
-4 -10 -6 0 -11 5 -11 10 0 6 2 10 4 10 3 0 8 -4 11 -10z m-232 -15 c-3 -9 -8
-14 -10 -11 -3 3 -2 9 2 15 9 16 15 13 8 -4z m77 -21 c0 -8 -4 -14 -9 -14 -11
0 -22 26 -14 34 9 9 23 -3 23 -20z m-3466 -19 c-4 -8 -10 -15 -14 -15 -5 0
-11 -8 -13 -17 -4 -15 -5 -14 -6 3 -1 20 16 44 31 44 4 0 5 -7 2 -15z m3564
-6 c-20 -13 -28 -11 -22 5 3 8 12 12 21 9 12 -5 12 -7 1 -14z m-3631 -31 c-3
-8 -6 -5 -6 6 -1 11 2 17 5 13 3 -3 4 -12 1 -19z m468 2 c-3 -5 -11 -10 -16
-10 -6 0 -7 5 -4 10 3 6 11 10 16 10 6 0 7 -4 4 -10z m31 -16 c-3 -9 -6 -18
-6 -20 0 -2 -10 -4 -22 -4 -21 0 -21 0 -2 19 23 24 38 27 30 5z m214 6 c0 9 5
8 18 -3 10 -10 24 -17 30 -17 7 0 12 -4 12 -10 0 -10 -43 -7 -72 5 -10 4 -18
14 -18 22 0 13 3 13 15 3 12 -10 15 -10 15 0z m-433 -6 c-3 -3 -12 -4 -19 -1
-8 3 -5 6 6 6 11 1 17 -2 13 -5z m389 -9 c-3 -8 -1 -15 5 -15 6 0 7 -5 4 -10
-4 -6 -12 -4 -21 5 -9 8 -19 13 -24 10 -5 -3 -12 0 -16 6 -5 8 1 10 20 7 14
-3 26 -1 26 3 0 5 3 9 6 9 3 0 4 -7 0 -15z m-410 -10 c19 -15 19 -15 -1 -8
-18 6 -18 5 -6 -10 8 -10 9 -17 3 -17 -6 0 -13 9 -17 19 -3 11 -14 22 -23 24
-13 4 -13 5 4 6 11 0 29 -6 40 -14z m2748 -34 c3 -5 -1 -11 -9 -14 -9 -4 -12
-1 -8 9 6 16 10 17 17 5z m20 -26 c-4 -8 -11 -15 -16 -15 -6 0 -5 6 2 15 7 8
14 15 16 15 2 0 1 -7 -2 -15z m750 -24 c9 -7 27 -11 41 -9 20 4 25 1 25 -14 0
-16 -3 -17 -21 -8 -17 10 -21 8 -26 -9 -3 -11 -8 -19 -12 -17 -4 3 -13 1 -20
-4 -19 -11 -19 -54 -1 -62 12 -5 12 -7 -2 -7 -10 -1 -18 -5 -18 -11 0 -5 -7
-7 -16 -3 -11 4 -12 8 -4 13 9 5 9 9 1 14 -6 4 -11 2 -11 -5 0 -6 -8 -9 -19
-6 -15 3 -20 -2 -25 -24 -5 -25 -10 -29 -40 -29 -19 0 -37 -6 -39 -12 -3 -7
-6 -3 -6 10 -1 12 -5 22 -11 22 -5 0 -10 7 -10 15 0 9 -12 21 -27 27 -25 10
-26 12 -8 16 10 2 21 -1 23 -7 3 -9 7 -9 18 0 8 6 11 16 7 22 -3 5 -1 7 5 3 6
-3 13 -2 17 4 3 5 0 10 -7 10 -10 0 -9 3 2 9 8 6 18 7 23 4 5 -3 15 4 23 16 8
12 21 21 28 21 18 0 67 26 61 32 -11 11 35 1 49 -11z m380 3 c-18 -14 -18 -15
6 -9 24 6 24 5 6 -9 -14 -12 -23 -13 -33 -5 -10 9 -13 8 -13 -2 0 -8 -6 -5
-15 7 -14 19 -14 19 -15 -1 -1 -11 -4 -15 -6 -8 -3 7 -13 9 -22 6 -10 -4 -14
-2 -9 3 12 13 68 32 96 33 24 1 24 1 5 -15z m-3942 -19 c-5 -30 -21 -32 -52
-7 -18 15 -20 19 -7 19 10 0 17 -4 17 -9 0 -4 7 -8 15 -8 8 0 15 7 15 15 0 8
4 15 9 15 4 0 6 -11 3 -25z m68 -28 c0 -4 -10 -2 -22 5 -13 7 -27 11 -31 10
-5 -1 -6 2 -3 7 7 10 56 -9 56 -22z m2930 18 c-12 -15 -30 -12 -30 6 0 5 10 9
21 9 18 0 19 -2 9 -15z m818 1 c-7 -8 -17 -12 -22 -9 -4 3 -2 9 5 14 22 13 31
11 17 -5z m-3688 -18 c0 -5 9 -6 20 -3 28 9 25 -4 -2 -14 -16 -6 -28 -4 -40 7
-24 20 -23 31 2 25 11 -3 20 -10 20 -15z m122 -8 c29 -27 2 -27 -32 0 -21 16
-22 20 -7 20 10 0 27 -9 39 -20z m2498 5 c0 -8 -2 -15 -4 -15 -2 0 -6 7 -10
15 -3 8 -1 15 4 15 6 0 10 -7 10 -15z m449 7 c18 11 54 6 81 -11 21 -14 5 -24
-19 -12 -13 7 -22 8 -26 1 -3 -5 -2 -10 3 -10 6 0 8 -10 4 -22 -4 -18 -2 -20
16 -16 12 4 22 3 22 -2 0 -12 -29 -20 -35 -10 -8 14 -35 0 -29 -15 3 -7 -5
-15 -21 -19 -21 -5 -24 -10 -16 -20 9 -10 8 -15 -5 -20 -23 -9 -26 -3 -15 27
7 18 6 26 -2 29 -19 7 -88 1 -95 -8 -4 -4 1 -4 11 -1 9 4 17 2 17 -3 0 -6 -9
-10 -20 -10 -11 0 -20 -5 -20 -11 0 -6 -6 -9 -14 -6 -8 3 -24 -4 -35 -15 -30
-27 -78 -40 -85 -23 -6 17 40 68 54 60 6 -3 10 -1 10 6 0 8 4 8 13 2 22 -17
46 -22 53 -11 4 6 3 8 -4 4 -6 -3 -14 -1 -18 5 -4 7 -3 9 4 5 6 -3 28 10 49
29 21 19 42 35 47 35 4 0 6 9 3 19 -4 16 1 21 22 23 14 2 27 0 29 -4 2 -4 11
-2 21 4z m576 -11 c-2 -18 -45 -22 -58 -6 -5 6 -7 -2 -4 -18 3 -22 2 -25 -9
-16 -8 6 -21 9 -29 5 -9 -3 -15 0 -15 9 0 8 -3 14 -7 14 -5 -1 -17 -1 -28 0
-17 1 -18 3 -5 11 20 13 26 12 44 -6 15 -14 18 -14 39 3 31 24 76 27 72 4z
m-2979 -7 c-9 -6 -15 -13 -13 -15 1 -2 0 -3 -2 -1 -14 8 -6 28 11 28 17 0 17
-2 4 -12z m3174 -14 c0 -5 -4 -10 -10 -10 -5 0 -10 5 -10 10 0 6 5 10 10 10 6
0 10 -4 10 -10z m-91 -9 c10 -7 11 -13 2 -27 -9 -17 -10 -17 -11 -2 0 9 -5 20
-12 24 -8 5 -9 0 -6 -14 4 -15 2 -22 -9 -22 -8 0 -11 5 -8 10 12 19 -14 10
-27 -9 -9 -13 -19 -17 -28 -11 -7 4 -19 6 -27 3 -7 -3 -13 -1 -13 4 0 9 6 11
50 15 11 1 20 6 20 10 0 5 10 13 23 18 28 11 29 11 46 1z m-927 -23 c-7 -7
-12 -8 -12 -2 0 14 12 26 19 19 2 -3 -1 -11 -7 -17z m638 -8 c0 -5 -7 -7 -15
-4 -8 4 -12 10 -9 15 6 11 24 2 24 -11z m340 16 c0 -3 -4 -8 -10 -11 -5 -3
-10 -1 -10 4 0 6 5 11 10 11 6 0 10 -2 10 -4z m-3685 -16 c3 -5 -1 -10 -9 -10
-9 0 -16 5 -16 10 0 6 4 10 9 10 6 0 13 -4 16 -10z m2350 -10 c-3 -5 -11 -10
-16 -10 -6 0 -7 5 -4 10 3 6 11 10 16 10 6 0 7 -4 4 -10z m264 -13 c-9 -7 -14
-18 -12 -24 3 -7 0 -13 -5 -13 -6 0 -9 6 -8 13 3 20 16 37 29 37 7 -1 6 -5 -4
-13z m-2582 -3 c-3 -3 -12 -4 -19 -1 -8 3 -5 6 6 6 11 1 17 -2 13 -5z m-45
-22 c-7 -2 -12 -10 -12 -18 0 -8 -4 -14 -10 -14 -5 0 -10 5 -10 10 0 17 24 39
35 32 5 -3 4 -7 -3 -10z m2315 -6 c-3 -6 -10 -10 -16 -8 -7 1 -10 -2 -6 -7 3
-6 12 -8 20 -4 20 7 20 -21 0 -37 -12 -10 -15 -10 -15 0 0 8 -9 11 -26 7 -21
-4 -25 -1 -21 13 3 12 0 17 -8 14 -7 -3 -16 -1 -20 5 -3 7 0 8 9 5 8 -3 19 3
25 14 7 14 17 18 36 14 14 -2 24 -10 22 -16z m84 10 c-12 -14 -51 -29 -51 -19
0 10 34 32 49 33 10 0 11 -3 2 -14z m1079 -6 c0 -5 -5 -10 -11 -10 -5 0 -7 5
-4 10 3 6 8 10 11 10 2 0 4 -4 4 -10z m-440 -20 c0 -5 -4 -10 -10 -10 -5 0
-10 5 -10 10 0 6 5 10 10 10 6 0 10 -4 10 -10z m613 -4 c7 -18 -1 -26 -27 -25
-12 0 -15 3 -8 6 6 2 12 11 12 19 0 18 16 18 23 0z m-1043 -8 c0 -4 -9 -8 -21
-8 -11 0 -18 4 -15 8 3 5 12 9 21 9 8 0 15 -4 15 -9z m247 6 c-3 -3 -12 -4
-19 -1 -8 3 -5 6 6 6 11 1 17 -2 13 -5z m463 -27 c0 -5 -6 -6 -12 -3 -7 3 -21
9 -30 12 -10 4 -18 10 -18 14 0 5 14 3 30 -3 17 -6 30 -15 30 -20z m-3255 3
c7 0 15 4 17 8 2 4 14 2 28 -6 l25 -14 -27 6 c-16 4 -28 1 -30 -6 -6 -18 -38
-1 -37 19 0 11 3 13 6 6 2 -7 11 -13 18 -13z m475 16 c0 -3 -4 -8 -10 -11 -5
-3 -10 -1 -10 4 0 6 5 11 10 11 6 0 10 -2 10 -4z m1885 -25 c3 -5 1 -12 -5
-16 -5 -3 -10 1 -10 9 0 18 6 21 15 7z m120 -10 c-3 -6 -14 -10 -23 -10 -15 1
-15 2 1 6 9 2 17 9 17 15 0 6 3 9 6 5 3 -3 3 -10 -1 -16z m-188 3 c-3 -3 -12
-4 -19 -1 -8 3 -5 6 6 6 11 1 17 -2 13 -5z m1193 -9 c0 -8 -7 -15 -15 -15 -9
0 -12 6 -9 15 4 8 10 15 15 15 5 0 9 -7 9 -15z m-1246 -1 c9 -3 16 -10 16 -15
0 -4 -7 -6 -15 -3 -9 4 -15 0 -15 -10 0 -17 -25 -22 -34 -7 -9 14 4 41 19 41
7 0 20 -3 29 -6z m937 -57 c-8 -8 -11 -8 -11 1 0 10 -5 10 -20 2 -19 -10 -28
-1 -12 14 7 7 8 11 11 37 0 7 11 0 22 -15 16 -20 19 -30 10 -39z m134 53 c3
-5 1 -10 -4 -10 -6 0 -11 5 -11 10 0 6 2 10 4 10 3 0 8 -4 11 -10z m252 3 c-4
-3 -2 -12 4 -20 9 -10 8 -13 -3 -13 -7 0 -14 9 -15 20 -1 11 3 20 9 20 6 0 8
-3 5 -7z m-1560 -18 c0 -8 -4 -12 -9 -9 -5 3 -6 10 -3 15 9 13 12 11 12 -6z
m323 11 c0 -3 -4 -8 -10 -11 -5 -3 -10 -1 -10 4 0 6 5 11 10 11 6 0 10 -2 10
-4z m795 -9 c14 -13 -49 -75 -84 -83 -24 -6 -25 -5 -7 8 18 14 18 15 -5 21
-19 6 -21 9 -10 16 8 5 11 16 8 24 -4 12 2 17 21 19 48 5 67 4 77 -5z m-2271
-13 c3 -8 2 -12 -4 -9 -6 3 -10 10 -10 16 0 14 7 11 14 -7z m48 -1 c-6 -3 -10
-9 -6 -14 3 -5 0 -9 -5 -9 -15 0 -14 27 2 33 6 2 14 2 17 -1 3 -2 -1 -7 -8 -9z
m48 8 c0 -6 -4 -13 -10 -16 -5 -3 -10 1 -10 9 0 9 5 16 10 16 6 0 10 -4 10 -9z
m1814 -10 c10 -10 25 -18 34 -16 9 1 30 -4 47 -13 l29 -15 -26 -22 c-21 -18
-35 -21 -79 -19 l-54 3 49 -14 c42 -12 55 -12 81 0 l32 13 -14 -29 c-17 -34
-29 -43 -45 -33 -7 5 -5 11 7 21 11 7 15 13 9 13 -17 -1 -44 -27 -36 -35 4 -5
0 -6 -8 -3 -9 3 -24 0 -35 -8 -10 -8 -31 -14 -47 -14 -15 0 -28 -6 -29 -12 0
-7 -4 -4 -8 7 -9 20 4 59 17 51 4 -2 7 9 8 26 1 16 9 37 19 46 13 13 16 13 10
2 -6 -12 -5 -13 6 -2 10 9 10 15 1 24 -16 16 -15 48 1 48 8 0 22 -9 31 -19z
m150 -18 c7 -17 -14 -38 -24 -24 -3 5 -15 11 -27 15 -34 11 -28 26 11 26 22 0
36 -6 40 -17z m-297 1 c-3 -3 -12 -4 -19 -1 -8 3 -5 6 6 6 11 1 17 -2 13 -5z
m-2180 -10 c-3 -4 2 -14 11 -23 10 -9 13 -13 7 -9 -7 4 -15 5 -18 1 -4 -3 -7
-1 -7 6 0 7 -5 9 -12 5 -9 -5 -9 -2 1 9 7 9 16 17 19 17 3 0 3 -3 -1 -6z
m1488 -4 c-3 -5 -10 -10 -16 -10 -5 0 -9 5 -9 10 0 6 7 10 16 10 8 0 12 -4 9
-10z m43 -7 c-5 -7 -14 -10 -19 -7 -16 10 -9 23 10 21 15 -1 17 -4 9 -14z
m1012 -3 c0 -5 -4 -10 -10 -10 -5 0 -10 5 -10 10 0 6 5 10 10 10 6 0 10 -4 10
-10z m355 0 c3 -5 1 -10 -4 -10 -6 0 -11 5 -11 10 0 6 2 10 4 10 3 0 8 -4 11
-10z m-3415 -20 c0 -5 -5 -10 -11 -10 -5 0 -7 5 -4 10 3 6 8 10 11 10 2 0 4
-4 4 -10z m2210 6 c0 -11 -19 -15 -25 -6 -3 5 1 10 9 10 9 0 16 -2 16 -4z
m121 -9 c-6 -8 -8 -17 -4 -20 3 -4 -6 -7 -21 -7 -16 0 -25 4 -21 10 3 6 13 10
21 10 8 0 14 5 14 10 0 6 5 10 11 10 8 0 9 -4 0 -13z m889 4 c0 -12 -29 -41
-40 -41 -5 0 -7 7 -4 15 4 8 12 15 20 15 8 0 14 5 14 10 0 6 2 10 5 10 3 0 5
-4 5 -9z m33 -23 c-18 -20 -29 -17 -20 5 3 7 12 14 21 14 15 0 14 -2 -1 -19z
m304 16 c-3 -3 -12 -4 -19 -1 -8 3 -5 6 6 6 11 1 17 -2 13 -5z m-148 -36 c1
19 26 14 46 -8 16 -17 16 -20 3 -15 -9 4 -25 2 -35 -4 -15 -7 -22 -6 -29 7 -6
9 -9 24 -6 32 4 11 7 10 13 -5 4 -11 8 -14 8 -7z m81 18 c0 -2 -7 -6 -15 -10
-8 -3 -15 -1 -15 4 0 6 7 10 15 10 8 0 15 -2 15 -4z m-1229 -30 c-8 -9 -24
-13 -48 -10 -23 3 -39 0 -44 -8 -4 -7 -11 -9 -15 -5 -9 9 26 36 41 31 5 -2 24
0 40 5 36 10 42 7 26 -13z m1073 -5 c-5 -5 -28 -11 -52 -15 -35 -5 -41 -4 -31
6 6 7 30 14 52 15 23 2 37 -1 31 -6z m-1156 -37 c15 -4 22 -14 22 -31 0 -16 4
-22 12 -17 7 4 8 3 4 -5 -4 -6 -12 -9 -17 -6 -5 4 -9 2 -9 -3 0 -12 -32 -11
-48 1 -10 8 -16 7 -23 -4 -6 -10 -9 -11 -9 -1 0 7 -5 10 -11 6 -8 -4 -9 0 -4
15 4 14 2 21 -7 22 -7 0 3 7 22 14 43 16 40 16 68 9z m130 -3 c-2 -5 6 -16 17
-25 20 -15 13 -15 -33 -1 -18 6 -20 10 -11 21 13 16 30 19 27 5z m-51 -7 c-3
-3 -12 -4 -19 -1 -8 3 -5 6 6 6 11 1 17 -2 13 -5z m424 -21 c-8 -15 -10 -15
-11 -2 0 17 10 32 18 25 2 -3 -1 -13 -7 -23z m-1284 -7 c-4 -10 0 -12 14 -9
10 3 19 1 19 -4 0 -5 -26 -11 -57 -12 -53 -2 -56 -1 -38 12 11 8 29 17 40 20
11 2 22 5 24 6 2 0 1 -5 -2 -13z m570 -2 c-3 -3 -12 -4 -19 -1 -8 3 -5 6 6 6
11 1 17 -2 13 -5z m823 -19 c-7 -8 -18 -15 -24 -15 -6 0 -2 7 8 15 25 19 32
19 16 0z m-710 -5 c0 -5 -5 -10 -11 -10 -5 0 -7 5 -4 10 3 6 8 10 11 10 2 0 4
-4 4 -10z m1400 1 c0 -5 -6 -13 -13 -19 -15 -13 -42 1 -33 17 8 13 46 15 46 2z
m-1666 -85 c-21 -15 -30 -14 -19 3 3 6 14 11 23 11 13 0 13 -2 -4 -14z m1311
2 c17 1 41 4 55 7 l25 5 -26 -15 c-15 -8 -29 -21 -33 -30 -5 -14 -8 -14 -30 0
-16 11 -26 13 -31 5 -3 -6 -10 -8 -15 -5 -5 3 -14 -4 -20 -15 -6 -11 -15 -20
-20 -20 -5 0 1 18 13 40 15 30 25 39 37 34 8 -4 29 -7 45 -6z m455 -8 c0 -5
-2 -10 -4 -10 -3 0 -8 5 -11 10 -3 6 -1 10 4 10 6 0 11 -4 11 -10z m-204 -20
c14 0 22 4 19 10 -8 12 5 13 24 1 10 -6 4 -12 -23 -21 -20 -6 -43 -9 -51 -6
-7 2 -15 0 -17 -6 -2 -6 -21 -12 -43 -14 -31 -2 -44 2 -61 22 l-23 24 24 0
c14 0 25 -5 25 -11 0 -7 10 -9 25 -5 15 4 25 2 25 -4 0 -6 5 -8 10 -5 6 4 8
11 5 16 -3 5 1 6 9 3 10 -4 16 -1 17 7 0 11 2 11 6 2 2 -7 16 -13 29 -13z
m336 -2 c-7 -7 -12 -8 -12 -2 0 14 12 26 19 19 2 -3 -1 -11 -7 -17z m-4377
-10 c4 4 5 -3 2 -15 -3 -13 -1 -26 4 -29 12 -7 11 -24 -1 -24 -5 0 -10 7 -10
15 0 8 -7 15 -15 15 -10 0 -15 10 -15 26 0 21 3 24 13 15 8 -6 17 -7 22 -3z
m2431 -3 c-1 -8 -6 -18 -11 -22 -4 -4 -5 -2 -1 5 4 6 2 12 -4 12 -6 0 -8 5 -5
10 9 15 24 12 21 -5z m-36 -5 c0 -5 -4 -10 -10 -10 -5 0 -10 5 -10 10 0 6 5
10 10 10 6 0 10 -4 10 -10z m-29 -17 c13 -16 12 -17 -3 -4 -10 7 -25 11 -33 7
-8 -3 -15 -1 -15 4 0 17 37 11 51 -7z m214 7 c3 -5 1 -10 -4 -10 -6 0 -11 5
-11 10 0 6 2 10 4 10 3 0 8 -4 11 -10z m1236 -18 c-9 -3 -9 -7 0 -18 8 -10 16
-11 31 -3 15 8 17 13 7 25 -16 19 -4 18 16 -3 16 -15 23 -15 103 1 92 18 240
27 248 14 3 -5 18 -8 35 -8 16 0 29 -4 29 -10 0 -5 -4 -10 -10 -10 -5 0 -17
-8 -27 -19 -13 -13 -38 -20 -88 -24 -38 -4 -83 -9 -100 -11 -16 -3 -34 -1 -41
5 -6 5 -28 8 -50 7 -79 -3 -164 14 -175 34 -8 15 -7 23 8 33 13 10 19 10 22 2
2 -6 -1 -13 -8 -15z m589 18 c0 -5 -7 -10 -15 -10 -8 0 -15 -4 -15 -10 0 -5
-6 -10 -12 -10 -7 1 -2 10 11 20 26 23 31 24 31 10z m-2313 -27 c-3 -3 -11 -2
-17 2 -9 6 -9 10 1 16 14 8 27 -7 16 -18z m103 9 c0 -12 -3 -12 -15 -2 -8 7
-15 13 -15 15 0 1 7 2 15 2 8 0 15 -7 15 -15z m-2074 -14 c-11 18 5 14 34 -7
20 -16 22 -21 11 -35 -20 -24 -1 -19 26 6 18 17 26 19 35 10 9 -9 7 -12 -9
-12 -13 0 -24 -8 -28 -21 -4 -12 -12 -18 -21 -15 -7 3 -18 -3 -23 -12 -7 -11
-11 -12 -11 -4 0 7 -4 10 -10 7 -5 -3 -8 -18 -6 -33 2 -15 1 -19 -1 -9 -4 17
-23 24 -23 8 0 -5 -9 -11 -21 -14 -12 -3 -18 -10 -14 -16 3 -6 1 -11 -4 -11
-6 0 -11 4 -11 9 0 5 -11 12 -25 15 -14 4 -25 11 -25 17 0 6 5 7 12 3 7 -5 9
-2 5 9 -3 9 1 18 11 23 23 10 62 12 56 2 -3 -4 0 -8 5 -8 10 0 16 42 11 85 -2
17 0 18 16 5 11 -9 15 -10 10 -2z m2239 -6 c-3 -3 -11 0 -18 7 -9 10 -8 11 6
5 10 -3 15 -9 12 -12z m-2281 -16 c-3 -8 -13 -12 -27 -8 -20 5 -20 6 -1 13 29
11 34 10 28 -5z m3656 -2 c0 -2 -7 -4 -15 -4 -8 0 -15 4 -15 10 0 5 7 7 15 4
8 -4 15 -8 15 -10z m-1275 -14 c3 -5 1 -10 -4 -10 -6 0 -11 5 -11 10 0 6 2 10
4 10 3 0 8 -4 11 -10z m-2470 -10 c3 -5 -1 -10 -10 -10 -9 0 -13 5 -10 10 3 6
8 10 10 10 2 0 7 -4 10 -10z m292 -15 c-9 -7 -13 -16 -9 -20 4 -4 0 -5 -8 -3
-8 3 -27 -1 -42 -9 -23 -11 -28 -11 -28 0 0 17 44 42 59 33 6 -4 14 0 17 8 3
9 11 13 17 9 6 -4 4 -10 -6 -18z m870 19 c-3 -3 -12 -4 -19 -1 -8 3 -5 6 6 6
11 1 17 -2 13 -5z m-860 -70 c-27 -31 -32 -24 -10 14 10 18 20 26 24 20 4 -6
-3 -21 -14 -34z m1773 36 c0 -5 -5 -10 -11 -10 -5 0 -7 5 -4 10 3 6 8 10 11
10 2 0 4 -4 4 -10z m2340 -26 c0 -21 -17 -25 -22 -6 -3 11 0 19 8 19 8 0 14
-6 14 -13z m-4240 -24 c-6 -12 -14 -20 -17 -17 -2 3 1 14 8 26 7 11 15 18 17
16 2 -2 -2 -13 -8 -25z m74 8 c-3 -4 -12 -8 -20 -8 -8 0 -12 -4 -9 -10 3 -5 1
-10 -4 -10 -12 0 -15 23 -5 33 9 8 43 4 38 -5z m120 -21 c-4 -13 -9 -14 -19
-4 -11 10 -10 13 4 18 20 8 23 6 15 -14z m51 -27 c3 -6 -1 -7 -9 -4 -18 7 -21
14 -7 14 6 0 13 -4 16 -10z m1662 4 c-3 -3 -12 -4 -19 -1 -8 3 -5 6 6 6 11 1
17 -2 13 -5z m-1773 -21 c-6 -23 -43 -71 -44 -57 0 6 7 17 15 24 17 14 21 45
5 35 -5 -3 -10 -1 -10 4 0 6 9 11 19 11 13 0 18 -5 15 -17z m-184 -8 c0 -8 -7
-15 -15 -15 -8 0 -15 5 -15 11 0 5 5 7 10 4 6 -3 10 -1 10 4 0 6 2 11 5 11 3
0 5 -7 5 -15z m227 -6 c-6 -9 -17 -15 -24 -12 -25 10 -12 32 17 30 14 -1 15
-5 7 -18z m-187 -9 c0 -5 -8 -10 -17 -10 -15 0 -16 2 -3 10 19 12 20 12 20 0z
m770 -15 c0 -12 -29 -3 -34 10 -4 13 -2 14 14 5 11 -6 20 -13 20 -15z m1095
-35 c3 -5 2 -10 -4 -10 -5 0 -13 5 -16 10 -3 6 -2 10 4 10 5 0 13 -4 16 -10z
m-2015 -19 c0 -5 -7 -14 -15 -21 -12 -10 -15 -10 -15 2 0 8 3 18 7 21 9 10 23
9 23 -2z m460 -5 c0 -3 -4 -8 -10 -11 -5 -3 -10 -1 -10 4 0 6 5 11 10 11 6 0
10 -2 10 -4z m60 -5 c0 -5 -11 -11 -25 -13 -14 -3 -25 -3 -25 -1 0 3 34 19 48
22 1 1 2 -3 2 -8z m3720 -1 c0 -5 -11 -9 -25 -8 -14 1 -25 6 -25 10 0 4 11 8
25 8 14 0 25 -4 25 -10z m-3929 -33 c-10 -9 -11 -8 -5 6 3 10 9 15 12 12 3 -3
0 -11 -7 -18z m249 9 c0 -2 -8 -10 -17 -17 -16 -13 -17 -12 -4 4 13 16 21 21
21 13z m3490 -15 c0 -5 -7 -11 -15 -15 -15 -5 -20 5 -8 17 9 10 23 9 23 -2z
m17 -33 c-3 -8 -6 -5 -6 6 -1 11 2 17 5 13 3 -3 4 -12 1 -19z m-3577 -18 c0
-5 -4 -10 -10 -10 -5 0 -10 5 -10 10 0 6 5 10 10 10 6 0 10 -4 10 -10z m1760
-56 c0 -8 -4 -12 -10 -9 -5 3 -10 10 -10 16 0 5 5 9 10 9 6 0 10 -7 10 -16z
m-2134 -14 c0 -11 -4 -20 -8 -20 -10 0 -11 24 -1 33 9 9 9 10 9 -13z m4064 0
c0 -5 -5 -10 -11 -10 -5 0 -7 5 -4 10 3 6 8 10 11 10 2 0 4 -4 4 -10z m-3776
-38 c3 -5 -1 -9 -9 -9 -8 0 -12 4 -9 9 3 4 7 8 9 8 2 0 6 -4 9 -8z m2606 -2
c0 -5 -5 -10 -11 -10 -5 0 -7 5 -4 10 3 6 8 10 11 10 2 0 4 -4 4 -10z m-2569
-23 c-10 -9 -11 -8 -5 6 3 10 9 15 12 12 3 -3 0 -11 -7 -18z m2466 1 c-3 -8
-6 -5 -6 6 -1 11 2 17 5 13 3 -3 4 -12 1 -19z m1453 -8 c8 -5 11 -10 5 -10 -5
0 -17 5 -25 10 -8 5 -10 10 -5 10 6 0 17 -5 25 -10z m-1455 -10 c17 -8 16 -8
-7 -7 -16 1 -28 5 -28 9 0 10 9 9 35 -2z m185 3 c-14 -3 -32 -10 -40 -16 -13
-11 -13 -10 -1 6 7 9 25 16 40 16 l26 -2 -25 -4z m70 -3 c0 -5 -4 -10 -9 -10
-6 0 -13 5 -16 10 -3 6 1 10 9 10 9 0 16 -4 16 -10z m-805 -60 c3 -5 1 -10 -4
-10 -6 0 -11 5 -11 10 0 6 2 10 4 10 3 0 8 -4 11 -10z m870 -8 c-3 -3 -11 0
-18 7 -9 10 -8 11 6 5 10 -3 15 -9 12 -12z m-827 -23 c-16 -10 -33 5 -23 21 5
8 11 8 21 -1 12 -10 12 -14 2 -20z m-774 13 c3 -5 -1 -9 -9 -9 -8 0 -15 4 -15
9 0 4 4 8 9 8 6 0 12 -4 15 -8z m836 -12 c0 -5 -7 -10 -16 -10 -8 0 -12 5 -9
10 3 6 10 10 16 10 5 0 9 -4 9 -10z m1576 -15 c-8 -8 -18 -15 -22 -15 -3 0 -1
7 6 15 7 8 17 15 22 15 5 0 3 -7 -6 -15z m-1616 -15 c0 -5 -4 -10 -9 -10 -6 0
-13 5 -16 10 -3 6 1 10 9 10 9 0 16 -4 16 -10z m-109 -31 c11 -5 17 -14 14
-19 -6 -10 -45 9 -45 22 0 11 8 10 31 -3z m-21 -39 c0 -5 -7 -7 -15 -4 -8 4
-15 8 -15 10 0 2 7 4 15 4 8 0 15 -4 15 -10z m885 1 c-6 -5 -39 -11 -75 -14
-59 -6 -63 -5 -46 8 21 16 137 22 121 6z m235 -1 c22 -14 0 -30 -27 -19 -13 4
-23 13 -23 19 0 13 30 13 50 0z m447 -13 c-4 -10 5 -13 39 -10 35 3 43 1 38
-10 -6 -16 -71 -21 -93 -8 -15 10 -8 41 10 41 6 0 9 -6 6 -13z m173 -22 c0
-12 -19 -12 -23 0 -4 9 -1 12 9 8 7 -3 14 -7 14 -8z m-37 -41 c5 -28 4 -31
-14 -27 -14 4 -17 9 -10 16 7 7 7 14 0 23 -12 14 -1 41 11 27 4 -4 10 -22 13
-39z m-153 27 c3 -1 -3 -6 -13 -12 -9 -5 -22 -7 -29 -3 -7 5 -8 3 -4 -5 5 -7
14 -10 22 -7 7 3 16 1 19 -4 4 -6 -2 -10 -12 -11 -10 0 -40 -2 -68 -4 -32 -3
-52 0 -57 8 -12 19 -10 24 12 30 11 3 20 2 20 -3 0 -4 11 -5 25 -2 14 2 25 7
25 11 0 6 44 7 60 2z m-668 -13 c10 -2 21 -8 25 -12 4 -5 -4 -6 -19 -2 -17 4
-28 2 -28 -4 0 -17 -25 -11 -44 11 -18 21 -18 21 16 16 18 -3 41 -7 50 -9z
m225 6 c-3 -3 -12 -4 -19 -1 -8 3 -5 6 6 6 11 1 17 -2 13 -5z m938 -23 c1 -17
-1 -19 -9 -9 -6 7 -18 19 -26 26 -12 11 -11 12 9 9 17 -3 25 -11 26 -26z
m-419 -1 c5 1 10 -4 12 -10 3 -8 -3 -10 -19 -5 -31 10 -32 11 -24 25 6 9 9 9
15 0 4 -6 11 -11 16 -10z m199 9 c10 -15 -1 -23 -20 -15 -9 3 -13 10 -10 16 8
13 22 13 30 -1z m64 -12 c0 -9 -2 -8 -6 1 -2 6 -10 9 -15 6 -7 -4 -8 -2 -4 5
9 13 26 5 25 -12z m125 5 c12 -19 -7 -52 -29 -52 -22 0 -45 29 -25 31 6 1 15
3 20 4 6 1 16 3 23 4 8 1 7 4 -3 11 -9 6 -10 10 -3 10 6 0 14 -4 17 -8z m-370
-40 c3 -5 -1 -9 -9 -9 -8 0 -12 4 -9 9 3 4 7 8 9 8 2 0 6 -4 9 -8z m46 -2 c0
-5 -4 -10 -10 -10 -5 0 -10 5 -10 10 0 6 5 10 10 10 6 0 10 -4 10 -10z m234
-86 c3 -8 2 -12 -4 -9 -6 3 -10 10 -10 16 0 14 7 11 14 -7z m161 6 c-3 -5 -12
-10 -18 -10 -7 0 -6 4 3 10 19 12 23 12 15 0z m-243 -62 c-7 -7 -12 -8 -12 -2
0 14 12 26 19 19 2 -3 -1 -11 -7 -17z"/>
<path d="M205 2860 c-3 -6 1 -7 9 -4 18 7 21 14 7 14 -6 0 -13 -4 -16 -10z"/>
<path d="M3860 2709 c0 -5 5 -7 10 -4 6 3 10 8 10 11 0 2 -4 4 -10 4 -5 0 -10
-5 -10 -11z"/>
<path d="M3908 2549 c16 -17 15 -30 -2 -23 -8 3 -17 1 -21 -5 -3 -7 0 -8 9 -5
9 3 16 1 16 -4 0 -18 -20 -24 -35 -12 -9 7 -15 8 -15 2 0 -12 29 -24 41 -17 5
3 18 1 29 -5 12 -6 20 -7 20 -1 0 5 -8 12 -17 14 -17 4 -17 5 0 6 18 1 25 21
7 21 -5 0 -10 6 -10 14 0 8 -8 17 -17 21 -15 5 -16 4 -5 -6z"/>
<path d="M3805 2451 c-3 -5 -2 -12 3 -15 5 -3 9 1 9 9 0 17 -3 19 -12 6z"/>
<path d="M3909 2424 c-10 -13 -10 -17 2 -25 23 -14 39 -10 39 10 0 25 -25 34
-41 15z"/>
<path d="M3761 2411 c-14 -9 -5 -18 18 -17 18 1 27 26 9 26 -7 0 -19 -4 -27
-9z"/>
<path d="M4070 1640 c0 -5 4 -10 9 -10 6 0 13 5 16 10 3 6 -1 10 -9 10 -9 0
-16 -4 -16 -10z"/>
<path d="M4009 1591 c-14 -12 -18 -19 -9 -17 26 5 50 18 50 27 0 14 -16 10
-41 -10z"/>
<path d="M3950 1519 c0 -5 5 -7 10 -4 6 3 10 8 10 11 0 2 -4 4 -10 4 -5 0 -10
-5 -10 -11z"/>
<path d="M3682 1588 c3 -7 13 -15 24 -17 16 -3 17 -1 5 13 -16 19 -34 21 -29
4z"/>
<path d="M3015 1410 c3 -5 8 -10 11 -10 2 0 4 5 4 10 0 6 -5 10 -11 10 -5 0
-7 -4 -4 -10z"/>
<path d="M3596 1352 c-3 -5 1 -9 9 -9 8 0 12 4 9 9 -3 4 -7 8 -9 8 -2 0 -6 -4
-9 -8z"/>
<path d="M3540 1271 c0 -6 4 -13 10 -16 6 -3 7 1 4 9 -7 18 -14 21 -14 7z"/>
<path d="M2866 1224 c-3 -8 -6 -17 -6 -18 0 -2 15 -3 33 -3 17 -1 25 1 17 4
-8 3 -20 12 -26 19 -10 12 -13 12 -18 -2z"/>
<path d="M4220 1016 c-5 -5 -10 -15 -10 -20 0 -6 5 -5 11 1 6 6 25 10 43 8 17
-1 23 0 14 2 -10 2 -18 8 -18 12 0 11 -28 9 -40 -3z"/>
<path d="M97 913 c-12 -11 -8 -30 7 -30 8 0 11 8 8 19 -5 20 -6 21 -15 11z"/>
<path d="M2976 3711 c-4 -7 -5 -15 -2 -18 9 -9 19 4 14 18 -4 11 -6 11 -12 0z"/>
<path d="M3328 3633 c6 -2 18 -2 25 0 6 3 1 5 -13 5 -14 0 -19 -2 -12 -5z"/>
<path d="M3380 3610 c0 -5 5 -10 10 -10 6 0 10 5 10 10 0 6 -4 10 -10 10 -5 0
-10 -4 -10 -10z"/>
<path d="M3310 3559 c0 -5 5 -7 10 -4 6 3 10 8 10 11 0 2 -4 4 -10 4 -5 0 -10
-5 -10 -11z"/>
<path d="M1725 3551 c3 -5 -3 -12 -12 -14 -17 -4 -17 -5 0 -6 9 0 17 -5 17
-10 0 -15 59 -19 64 -4 3 7 12 10 21 7 22 -9 19 13 -4 26 -24 12 -94 13 -86 1z"/>
<path d="M1566 3441 c3 -37 3 -38 14 -21 13 21 12 37 -3 43 -8 3 -12 -4 -11
-22z"/>
<path d="M3114 3375 c-4 -9 -2 -21 5 -26 6 -5 9 -6 6 -3 -3 4 0 13 6 20 7 8 7
14 -1 19 -5 3 -13 -1 -16 -10z"/>
<path d="M3245 3381 c-3 -5 -1 -12 5 -16 5 -3 10 1 10 9 0 18 -6 21 -15 7z"/>
<path d="M3035 3351 c-3 -5 -1 -12 5 -16 5 -3 10 1 10 9 0 18 -6 21 -15 7z"/>
<path d="M3135 3352 c3 -3 0 -11 -5 -17 -8 -9 -5 -14 10 -18 16 -4 20 0 20 17
0 14 -6 23 -15 23 -8 0 -13 -3 -10 -5z"/>
<path d="M3211 3333 c7 -10 15 -20 16 -22 2 -2 3 3 3 11 0 9 -7 19 -16 22 -15
6 -15 4 -3 -11z"/>
<path d="M3240 3339 c0 -5 5 -7 10 -4 6 3 10 8 10 11 0 2 -4 4 -10 4 -5 0 -10
-5 -10 -11z"/>
<path d="M3034 3298 c0 -10 4 -18 8 -18 4 0 8 5 8 10 0 6 5 10 10 10 6 0 10
-7 10 -16 0 -8 4 -13 9 -10 5 3 7 15 4 26 -7 25 -49 24 -49 -2z"/>
<path d="M3170 3296 c0 -8 -6 -17 -12 -19 -8 -3 -6 -6 5 -6 11 -1 17 6 17 19
0 11 -2 20 -5 20 -3 0 -5 -6 -5 -14z"/>
<path d="M3075 3259 l-20 -9 20 2 c11 0 28 -2 38 -7 20 -9 32 -1 22 14 -7 13
-32 13 -60 0z"/>
<path d="M1604 3231 c4 -5 -3 -7 -14 -4 -11 3 -20 1 -20 -5 0 -11 36 -23 44
-14 10 9 7 32 -5 32 -5 0 -8 -4 -5 -9z"/>
<path d="M1638 3203 c7 -3 16 -2 19 1 4 3 -2 6 -13 5 -11 0 -14 -3 -6 -6z"/>
<path d="M1560 3190 c0 -5 5 -10 11 -10 5 0 7 5 4 10 -3 6 -8 10 -11 10 -2 0
-4 -4 -4 -10z"/>
<path d="M1410 3100 c0 -11 4 -20 9 -20 6 0 9 9 8 20 -1 11 -5 20 -9 20 -4 0
-8 -9 -8 -20z"/>
<path d="M1513 3091 c-19 -5 -20 -8 -8 -25 11 -15 19 -17 35 -10 18 8 19 12 8
25 -8 10 -21 14 -35 10z"/>
<path d="M1530 3021 c0 -6 5 -13 10 -16 6 -3 10 1 10 9 0 9 -4 16 -10 16 -5 0
-10 -4 -10 -9z"/>
<path d="M3211 2981 c-10 -6 -9 -10 3 -14 8 -3 18 -2 21 3 8 13 -9 20 -24 11z"/>
<path d="M3265 2770 c-3 -5 -1 -10 4 -10 6 0 11 5 11 10 0 6 -2 10 -4 10 -3 0
-8 -4 -11 -10z"/>
<path d="M719 2733 c-8 -9 -9 -14 -2 -10 6 4 13 2 15 -5 3 -9 6 -9 12 0 4 7 2
12 -4 12 -6 0 -8 5 -5 10 10 16 -1 11 -16 -7z"/>
<path d="M4470 2731 c0 -5 7 -11 15 -15 9 -3 15 0 15 9 0 8 -7 15 -15 15 -8 0
-15 -4 -15 -9z"/>
<path d="M1050 2720 c0 -5 7 -10 15 -10 8 0 15 5 15 10 0 6 -7 10 -15 10 -8 0
-15 -4 -15 -10z"/>
<path d="M4419 2676 c7 -8 11 -20 10 -28 -4 -35 2 -40 21 -18 24 28 25 31 3
23 -10 -3 -15 -3 -11 2 4 4 1 14 -7 21 -18 18 -31 18 -16 0z"/>
<path d="M767 2656 c-17 -13 -17 -14 0 -20 10 -4 14 -4 10 0 -4 4 -2 13 4 21
14 17 9 16 -14 -1z"/>
<path d="M594 2649 c-4 -7 -3 -14 4 -17 7 -2 12 -10 12 -18 0 -10 -7 -13 -25
-8 -28 7 -34 -10 -7 -22 24 -11 33 -11 64 -3 21 6 28 3 31 -9 3 -10 5 -2 6 15
1 31 -1 32 -24 23 -15 -6 -26 -6 -30 0 -4 6 -1 10 5 10 7 0 10 5 8 11 -2 6 -7
10 -12 9 -5 -1 -12 4 -16 10 -6 9 -9 9 -16 -1z"/>
<path d="M4400 2644 c0 -8 5 -12 10 -9 6 3 10 10 10 16 0 5 -4 9 -10 9 -5 0
-10 -7 -10 -16z"/>
<path d="M805 2620 c-3 -6 1 -7 9 -4 18 7 21 14 7 14 -6 0 -13 -4 -16 -10z"/>
<path d="M4477 2609 c7 -7 15 -10 18 -7 3 3 -2 9 -12 12 -14 6 -15 5 -6 -5z"/>
<path d="M528 2603 c7 -3 16 -2 19 1 4 3 -2 6 -13 5 -11 0 -14 -3 -6 -6z"/>
<path d="M3420 2565 c-7 -9 -8 -15 -2 -15 5 0 12 7 16 15 3 8 4 15 2 15 -2 0
-9 -7 -16 -15z"/>
<path d="M520 2560 c0 -5 5 -10 10 -10 6 0 10 5 10 10 0 6 -4 10 -10 10 -5 0
-10 -4 -10 -10z"/>
<path d="M630 2560 c0 -5 5 -10 11 -10 5 0 7 5 4 10 -3 6 -8 10 -11 10 -2 0
-4 -4 -4 -10z"/>
<path d="M475 2550 c3 -5 8 -10 11 -10 2 0 4 5 4 10 0 6 -5 10 -11 10 -5 0 -7
-4 -4 -10z"/>
<path d="M480 2521 c0 -5 7 -11 14 -14 10 -4 13 -1 9 9 -6 15 -23 19 -23 5z"/>
<path d="M3633 2508 c1 -13 8 -29 15 -36 6 -7 12 -20 12 -28 0 -8 7 -14 16
-14 9 0 14 3 12 8 -2 4 -12 26 -22 50 -20 45 -37 56 -33 20z"/>
<path d="M410 2507 c0 -12 8 -17 31 -17 19 0 28 4 24 11 -4 6 -13 8 -20 5 -7
-2 -18 1 -24 7 -8 8 -11 7 -11 -6z"/>
<path d="M3465 2509 c-10 -15 1 -23 20 -15 9 3 13 10 10 16 -8 13 -22 13 -30
-1z"/>
<path d="M4441 2411 c-9 -6 -11 -15 -6 -27 5 -11 7 -22 7 -26 -1 -5 2 -8 7 -8
5 0 9 16 8 35 -1 19 -1 35 -1 35 -1 0 -7 -4 -15 -9z"/>
<path d="M130 2180 c0 -5 5 -10 11 -10 5 0 7 5 4 10 -3 6 -8 10 -11 10 -2 0
-4 -4 -4 -10z"/>
<path d="M466 1934 c-8 -20 0 -32 14 -18 5 5 5 15 1 22 -6 11 -10 10 -15 -4z"/>
<path d="M3622 1941 c-11 -7 -10 -9 3 -14 9 -4 13 -3 10 2 -3 5 3 12 12 14 13
3 14 5 3 6 -8 0 -21 -3 -28 -8z"/>
<path d="M512 1920 c0 -14 2 -19 5 -12 2 6 2 18 0 25 -3 6 -5 1 -5 -13z"/>
<path d="M488 1882 c-4 -15 -1 -18 14 -14 11 2 16 8 11 11 -4 3 -11 10 -14 14
-4 4 -9 -1 -11 -11z"/>
<path d="M3553 1877 c-31 -10 -45 -27 -23 -27 16 0 60 23 60 32 0 4 -1 7 -2 7
-2 -1 -18 -7 -35 -12z"/>
<path d="M540 1830 c-8 -5 -12 -12 -9 -15 4 -3 12 1 19 10 14 17 11 19 -10 5z"/>
<path d="M1060 1825 c-11 -13 -10 -14 4 -9 9 3 16 10 16 15 0 13 -6 11 -20 -6z"/>
<path d="M3386 1772 c-3 -5 1 -9 9 -9 8 0 15 4 15 9 0 4 -4 8 -9 8 -6 0 -12
-4 -15 -8z"/>
<path d="M1327 1723 c-4 -3 1 -12 11 -20 15 -13 15 -13 -8 -7 l-25 6 23 -21
c19 -19 31 -21 83 -18 33 3 62 7 65 10 11 10 -47 17 -66 7 -22 -12 -51 -13
-48 -2 4 11 -28 53 -35 45z"/>
<path d="M1250 1697 c0 -20 17 -31 23 -15 3 10 7 10 21 -1 14 -12 16 -12 10 3
-3 9 -10 16 -14 16 -5 0 -15 3 -24 6 -10 4 -16 1 -16 -9z"/>
<path d="M3040 1680 c-12 -7 -10 -9 7 -7 12 0 19 5 17 9 -6 10 -6 10 -24 -2z"/>
<path d="M3190 1675 c7 -8 10 -22 6 -30 -3 -8 -1 -15 4 -15 17 0 11 47 -6 54
-14 5 -15 4 -4 -9z"/>
<path d="M2894 1666 c-10 -8 -15 -18 -11 -22 4 -4 15 0 24 9 22 21 12 31 -13
13z"/>
<path d="M2983 1665 c0 -8 4 -12 9 -9 5 3 6 10 3 15 -9 13 -12 11 -12 -6z"/>
<path d="M3091 1664 c0 -11 3 -14 6 -6 3 7 2 16 -1 19 -3 4 -6 -2 -5 -13z"/>
<path d="M2567 1663 c-4 -3 -7 -11 -7 -17 0 -6 5 -5 12 2 6 6 9 14 7 17 -3 3
-9 2 -12 -2z"/>
<path d="M3135 1661 c-6 -11 9 -23 19 -14 9 9 7 23 -3 23 -6 0 -12 -4 -16 -9z"/>
<path d="M2930 1649 c0 -5 -4 -7 -10 -4 -5 3 -10 1 -10 -4 0 -6 7 -11 15 -11
8 0 15 7 15 15 0 8 -2 15 -5 15 -3 0 -5 -5 -5 -11z"/>
<path d="M1366 1638 c3 -5 10 -6 15 -3 13 9 11 12 -6 12 -8 0 -12 -4 -9 -9z"/>
<path d="M2980 1620 c-19 -11 -52 -19 -74 -20 -30 0 -37 -3 -32 -16 3 -8 2
-12 -4 -9 -6 3 -10 16 -11 28 l0 22 -9 -21 c-12 -30 -28 -38 -46 -23 -8 6 -18
9 -22 5 -4 -4 4 -16 18 -26 l25 -20 -32 9 c-34 10 -43 6 -43 -17 0 -12 3 -12
15 -2 9 7 18 10 22 6 3 -3 0 -6 -8 -7 -8 0 -5 -4 6 -8 11 -5 24 -6 30 -3 5 3
24 5 42 3 21 -2 38 4 52 18 12 12 26 21 32 21 7 0 17 8 24 17 9 13 17 14 26 7
16 -12 39 -13 39 -1 0 4 0 10 0 13 0 4 -7 0 -16 -7 -14 -11 -15 -10 -12 11 3
22 8 25 42 24 25 -1 33 1 25 7 -22 14 -51 10 -89 -11z m-70 -70 c0 -5 -7 -10
-15 -10 -8 0 -15 5 -15 10 0 6 7 10 15 10 8 0 15 -4 15 -10z"/>
<path d="M1476 1607 c3 -10 9 -15 12 -12 3 3 0 11 -7 18 -10 9 -11 8 -5 -6z"/>
<path d="M2921 1526 c-9 -11 -9 -16 0 -21 10 -7 28 10 29 28 0 12 -17 8 -29
-7z"/>
<path d="M2690 1471 c0 -6 4 -12 8 -15 5 -3 9 1 9 9 0 8 -4 15 -9 15 -4 0 -8
-4 -8 -9z"/>
<path d="M2575 1450 c-4 -6 -10 -8 -15 -5 -4 3 -25 -1 -46 -9 -22 -7 -45 -11
-51 -9 -7 3 -13 -1 -13 -7 0 -14 64 -7 84 9 10 8 16 9 21 1 7 -12 45 5 45 20
0 13 -17 13 -25 0z"/>
<path d="M1870 1380 c0 -5 14 -10 32 -10 36 0 35 4 -4 14 -17 4 -28 2 -28 -4z"/>
<path d="M1970 1379 c0 -10 44 -23 61 -17 6 2 -5 9 -25 15 -20 6 -36 7 -36 2z"/>
<path d="M2180 1360 c0 -5 5 -10 11 -10 5 0 7 5 4 10 -3 6 -8 10 -11 10 -2 0
-4 -4 -4 -10z"/>
<path d="M2575 1330 c-4 -6 5 -10 20 -10 15 0 24 4 20 10 -3 6 -12 10 -20 10
-8 0 -17 -4 -20 -10z"/>
<path d="M1550 1313 c0 -14 33 -16 64 -4 27 10 6 22 -33 19 -17 -1 -31 -8 -31
-15z"/>
<path d="M4480 1269 c0 -5 5 -7 10 -4 6 3 10 8 10 11 0 2 -4 4 -10 4 -5 0 -10
-5 -10 -11z"/>
<path d="M4426 1231 c-4 -7 -5 -15 -2 -18 9 -9 19 4 14 18 -4 11 -6 11 -12 0z"/>
<path d="M1991 741 c-7 -5 -12 -13 -10 -19 2 -6 14 -2 28 9 23 19 9 27 -18 10z"/>
<path d="M2830 510 c-12 -8 -9 -10 13 -10 15 0 27 5 27 10 0 13 -20 13 -40 0z"/>
<path d="M4485 187 c-4 -10 -5 -21 -1 -24 10 -10 18 4 13 24 -4 17 -4 17 -12
0z"/>
</g>
</svg>
